<svg width="37" height="37" viewBox="0 0 37 37" fill="none" xmlns="http://www.w3.org/2000/svg">
<mask id="mask0_926_8340" style="mask-type:luminance" maskUnits="userSpaceOnUse" x="0" y="0" width="37" height="37">
<path fill-rule="evenodd" clip-rule="evenodd" d="M0 18.5C0 8.28273 8.28273 0 18.5 0C28.7173 0 37 8.28273 37 18.5C37 28.7173 28.7173 37 18.5 37C8.28273 37 0 28.7173 0 18.5Z" fill="white"/>
</mask>
<g mask="url(#mask0_926_8340)">
<path fill-rule="evenodd" clip-rule="evenodd" d="M0 18.5C0 8.28273 8.28273 0 18.5 0C28.7173 0 37 8.28273 37 18.5C37 28.7173 28.7173 37 18.5 37C8.28273 37 0 28.7173 0 18.5Z" fill="#7289DA"/>
<path d="M22.8778 24.9318C22.8778 24.9318 22.3385 24.2954 21.8891 23.733C23.8516 23.1854 24.6006 21.9719 24.6006 21.9719C23.9864 22.3715 23.4021 22.6526 22.8778 22.845C22.1288 23.1558 21.4097 23.363 20.7056 23.4814C19.2674 23.7478 17.9491 23.6738 16.8256 23.4666C15.9717 23.3038 15.2376 23.067 14.6234 22.8302C14.2788 22.697 13.9043 22.5342 13.5298 22.3271C13.4848 22.2975 13.4399 22.2827 13.395 22.2531C13.365 22.2383 13.35 22.2235 13.335 22.2087C13.0654 22.0607 12.9156 21.9571 12.9156 21.9571C12.9156 21.9571 13.6347 23.141 15.5372 23.7034C15.0878 24.2658 14.5335 24.9318 14.5335 24.9318C11.2227 24.8282 9.96436 22.6822 9.96436 22.6822C9.96436 17.9168 12.1216 14.0541 12.1216 14.0541C14.2788 12.4557 16.3312 12.5001 16.3312 12.5001L16.481 12.6777C13.7845 13.4473 12.5411 14.6165 12.5411 14.6165C12.5411 14.6165 12.8706 14.4389 13.4249 14.1873C15.0279 13.4917 16.3012 13.2993 16.8256 13.2549C16.9155 13.2401 16.9904 13.2253 17.0802 13.2253C17.9941 13.1069 19.0277 13.0773 20.1064 13.1957C21.5295 13.3585 23.0576 13.7729 24.6156 14.6165C24.6156 14.6165 23.4321 13.5065 20.8854 12.7369L21.0951 12.5001C21.0951 12.5001 23.1475 12.4557 25.3047 14.0541C25.3047 14.0541 27.4619 17.9168 27.4619 22.6822C27.4619 22.6822 26.1886 24.8282 22.8778 24.9318Z" fill="white"/>
<path fill-rule="evenodd" clip-rule="evenodd" d="M20.2427 19.9804C20.2427 19.0509 20.9115 18.2891 21.7587 18.2891C22.6058 18.2891 23.2747 19.0509 23.2747 19.9804C23.2747 20.9099 22.6058 21.6718 21.7587 21.6718C20.9264 21.6718 20.2427 20.9099 20.2427 19.9804ZM14.8174 19.9805C14.8174 19.051 15.4862 18.2891 16.3334 18.2891C17.1806 18.2891 17.8642 19.051 17.8494 19.9805C17.8494 20.91 17.1806 21.6719 16.3334 21.6719C15.5011 21.6719 14.8174 20.91 14.8174 19.9805Z" fill="#7289DA"/>
</g>
</svg>
