<svg width="30" height="30" viewBox="0 0 30 30" fill="none" xmlns="http://www.w3.org/2000/svg">
<path d="M14.9982 30C6.72655 30 0 23.2726 0 15C0 6.73095 6.72655 0 14.9982 0C16.0115 0 17.0248 0.100623 18.0129 0.301869C18.5555 0.413273 19.0981 0.553426 19.6227 0.725922C19.8886 0.812171 20.0323 1.09607 19.9461 1.362C19.8599 1.62793 19.576 1.77168 19.3101 1.68543C18.8214 1.52731 18.3148 1.39435 17.8117 1.29013C16.8918 1.10326 15.9468 1.00623 14.9982 1.00623C7.28351 1.00623 1.0097 7.28438 1.0097 15C1.0097 22.7156 7.2871 28.9902 14.9982 28.9902C22.7129 28.9902 28.9903 22.712 28.9903 15C28.9903 12.7036 28.4226 10.4253 27.3482 8.41279C27.2152 8.16842 27.3087 7.86296 27.5566 7.72999C27.8009 7.59703 28.1064 7.69046 28.2393 7.93843C29.3927 10.0946 30 12.5383 30 15C29.9964 23.2726 23.2699 30 14.9982 30Z" fill="#222222"/>
<path fill-rule="evenodd" clip-rule="evenodd" d="M16.2677 11.1055V9.74609C16.2677 9.07812 16.7126 8.92578 17.0276 8.92578C17.3425 8.92578 18.9528 8.92578 18.9528 8.92578V6.01563L16.3032 6C13.3701 6 12.6969 8.17969 12.6969 9.56641V11.1055H11V13.1602V14.5039H12.7126C12.7126 18.3516 12.7126 23 12.7126 23H16.1378C16.1378 23 16.1378 18.3086 16.1378 14.5039H18.685L18.811 13.168L19 11.1055H16.2677Z" fill="#222222"/>
<path d="M25.5184 5C25.3987 5 25.2757 4.94907 25.1834 4.84328C24.8415 4.45932 24.4792 4.09494 24.1066 3.75408C23.8194 3.49157 23.5186 3.24474 23.2143 3.00966C22.9921 2.84118 22.934 2.50032 23.081 2.24565C23.228 1.99098 23.5254 1.92437 23.7476 2.09284C24.0758 2.3436 24.3971 2.61002 24.7048 2.8882C25.1048 3.25257 25.4945 3.64437 25.8568 4.05576C26.0448 4.26733 26.0483 4.61604 25.8637 4.83153C25.7645 4.94123 25.6415 5 25.5184 5Z" fill="#222222"/>
</svg>
