<svg id="logo" viewBox="0 0 161 42" fill="none" xmlns="http://www.w3.org/2000/svg">
<g clip-path="url(#clip0_926_1463)">
<mask id="mask0_926_1463" style="mask-type:luminance" maskUnits="userSpaceOnUse" x="-2" y="-1" width="43" height="44">
<path d="M19.7862 -0.116211C25.4099 -0.116211 30.8032 2.11779 34.7798 6.09434C38.7563 10.0709 40.9903 15.4642 40.9903 21.0879C40.9903 26.7116 38.7563 32.105 34.7798 36.0815C30.8032 40.0581 25.4099 42.2921 19.7862 42.2921C14.1625 42.2921 8.76912 40.0581 4.79258 36.0815C0.816031 32.105 -1.41797 26.7116 -1.41797 21.0879C-1.41797 15.4642 0.816031 10.0709 4.79258 6.09434C8.76912 2.11779 14.1625 -0.116211 19.7862 -0.116211Z" fill="white"/>
</mask>
<g mask="url(#mask0_926_1463)">
<path d="M19.7859 -0.116211C25.4096 -0.116211 30.803 2.11779 34.7795 6.09434C38.7561 10.0709 40.9901 15.4642 40.9901 21.0879C40.9901 26.7116 38.7561 32.105 34.7795 36.0815C30.803 40.0581 25.4096 42.2921 19.7859 42.2921C14.1622 42.2921 8.76888 40.0581 4.79233 36.0815C0.815787 32.105 -1.41821 26.7116 -1.41821 21.0879C-1.41821 15.4642 0.815787 10.0709 4.79233 6.09434C8.76888 2.11779 14.1622 -0.116211 19.7859 -0.116211Z" fill="#E7AE44"/>
<path d="M36.2857 -5.91992L-8.85938 36.084L36.0145 54.6845L36.2857 -5.91992Z" fill="#200863"/>
<path d="M28.1985 45.7495C28.1985 45.8203 28.1844 45.8904 28.157 45.9556C28.1297 46.0209 28.0895 46.08 28.039 46.1296C27.9885 46.1792 27.9287 46.2182 27.8629 46.2444C27.7971 46.2706 27.7268 46.2834 27.6561 46.2821C18.4971 46.0702 9.79217 42.2512 3.43403 35.6553C3.38364 35.6058 3.34361 35.5467 3.31629 35.4815C3.28897 35.4163 3.2749 35.3463 3.2749 35.2756C3.2749 35.205 3.28897 35.135 3.31629 35.0698C3.34361 35.0046 3.38364 34.9455 3.43403 34.8959L27.5131 12.4048C27.5907 12.3342 27.6871 12.2876 27.7907 12.2707C27.8943 12.2539 28.0005 12.2674 28.0965 12.3096C28.1926 12.3519 28.2743 12.4211 28.3317 12.5089C28.3892 12.5967 28.42 12.6993 28.4204 12.8042L28.1985 45.7495Z" fill="#F9F9F9"/>
<path opacity="0.3" d="M14.0954 44.477L26.7982 15.383C26.8478 15.268 26.9361 15.1739 27.0477 15.1171C27.1594 15.0603 27.2873 15.0442 27.4095 15.0717C27.5317 15.0992 27.6405 15.1685 27.7171 15.2676C27.7936 15.3668 27.8331 15.4896 27.8288 15.6147L26.8031 45.8479C26.7969 45.9192 26.7767 45.9886 26.7435 46.0521C26.7104 46.1156 26.665 46.1719 26.61 46.2177C26.5549 46.2636 26.4914 46.2981 26.423 46.3192C26.3546 46.3404 26.2826 46.3478 26.2114 46.341L14.5244 45.2167C14.4423 45.2063 14.3637 45.1772 14.2947 45.1314C14.2258 45.0857 14.1683 45.0247 14.1267 44.9531C14.0852 44.8815 14.0608 44.8013 14.0554 44.7187C14.0499 44.6362 14.0636 44.5534 14.0954 44.477Z" fill="#114CC2"/>
<path opacity="0.3" d="M8.73017 40.1919L26.9756 13.5635L5.63831 37.2529C5.54472 37.3533 5.49268 37.4855 5.49268 37.6228C5.49268 37.76 5.54472 37.8922 5.63831 37.9926L7.90173 40.2856C7.95877 40.3415 8.02754 40.3839 8.10304 40.4099C8.17855 40.4359 8.25888 40.4447 8.33822 40.4357C8.41755 40.4267 8.4939 40.4002 8.56169 40.358C8.62949 40.3159 8.68704 40.2591 8.73017 40.1919Z" fill="white"/>
<path d="M12.4631 24.6533L30.2154 32.0501" stroke="#200863" stroke-width="2.95872"/>
</g>
<path d="M58.5701 19.0809C59.0277 20.0064 59.737 20.784 60.6166 21.3246C61.4395 21.7473 62.3545 21.9591 63.2794 21.941C64.1438 21.9799 65.0072 21.8458 65.819 21.5465C66.075 21.456 66.2972 21.2894 66.4559 21.0691C66.6145 20.8487 66.702 20.5851 66.7066 20.3137C66.7084 19.9715 66.6148 19.6357 66.4362 19.3439C66.2576 19.052 66.0012 18.8158 65.6957 18.6617C64.5826 18.1274 63.3931 17.7697 62.1699 17.6015L60.7399 17.3303C59.2107 17.0932 57.814 16.325 56.7949 15.1606C55.8157 14.0147 55.2895 12.5501 55.3156 11.043C55.2908 10.1247 55.5873 9.22655 56.1539 8.50346C56.7754 7.74504 57.5946 7.17331 58.5208 6.85151C59.6446 6.45476 60.8304 6.2627 62.022 6.28442C64.0569 6.28442 65.676 6.6707 66.8792 7.44325C68.2215 8.35992 69.248 9.66881 69.8182 11.191L66.3417 12.5963C65.9337 11.8604 65.3271 11.2538 64.5911 10.8458C63.7262 10.4196 62.7685 10.2162 61.805 10.254C61.1964 10.2223 60.5888 10.332 60.0298 10.5746C59.8177 10.6972 59.6463 10.8794 59.5368 11.0985C59.4272 11.3177 59.3843 11.5641 59.4134 11.8074C59.3988 12.0544 59.4534 12.3006 59.571 12.5184C59.6886 12.7362 59.8645 12.9168 60.0791 13.0402C60.8432 13.3888 61.646 13.6454 62.4707 13.8045L63.6049 14.0757C66.1691 14.6806 68.0101 15.5518 69.1278 16.6892C69.6716 17.2301 70.0988 17.8768 70.3829 18.5892C70.6671 19.3016 70.8021 20.0648 70.7798 20.8314C70.8036 21.6105 70.6198 22.3819 70.2472 23.0665C69.8746 23.751 69.3266 24.3242 68.6594 24.7271C67.2786 25.5983 65.4048 26.0339 63.0378 26.0339C61.3064 26.1067 59.5917 25.6695 58.1066 24.7764C56.6235 23.6938 55.4088 22.2851 54.5562 20.6589L58.5701 19.0809ZM88.3496 22.2122C87.7066 23.5401 86.6746 24.6408 85.3909 25.3681C83.9283 26.0856 82.3092 26.4247 80.6816 26.3544C79.3526 26.3645 78.0468 26.006 76.9093 25.3188C75.781 24.6356 74.8537 23.6658 74.2218 22.508C73.5646 21.3155 73.225 19.974 73.2355 18.6124C73.223 17.2584 73.5628 15.9244 74.2218 14.7414C74.8537 13.5837 75.781 12.6139 76.9093 11.9306C78.0468 11.2434 79.3526 10.885 80.6816 10.8951C84.4589 10.8951 87.0807 12.3827 88.5469 15.3578L85.3416 17.4782C84.91 16.9205 84.4226 16.4083 83.8869 15.9496C83.5121 15.6329 83.0755 15.3977 82.6048 15.2592C82.1133 15.1355 81.6075 15.0774 81.1008 15.0866C80.6139 15.068 80.1281 15.1455 79.6712 15.3147C79.2143 15.484 78.7952 15.7416 78.4379 16.0728C78.1065 16.4047 77.8476 16.8018 77.6779 17.239C77.5081 17.6761 77.431 18.1439 77.4517 18.6124C77.4214 19.0968 77.4936 19.5821 77.6635 20.0367C77.8334 20.4913 78.0973 20.9049 78.4379 21.2506C79.1852 21.8853 80.1462 22.2115 81.1254 22.1629C81.8782 22.1791 82.6234 22.0097 83.2952 21.6697C84.0046 21.2623 84.6183 20.7074 85.095 20.0425L88.3496 22.2122ZM100.988 10.5746C102.278 10.5193 103.556 10.8451 104.662 11.5115C105.714 12.2302 106.482 13.2943 106.832 14.5195C107.383 16.3236 107.633 18.2063 107.571 20.0918V26.0092H103.528V20.0918C103.528 18.2179 103.232 16.8618 102.64 16.0235C102.063 15.1852 101.023 14.7661 99.5089 14.7661C98.8974 14.7249 98.2849 14.8311 97.7229 15.0756C97.1609 15.3201 96.6657 15.6959 96.279 16.1715C95.5722 17.1084 95.2188 18.4234 95.2188 20.1164V26.0339H91.0223V10.9789V6.29428H95.2138V10.9789L94.4742 16.2306H94.9673C95.1645 14.5212 95.5179 13.2637 96.0275 12.4583C96.4452 11.7225 97.122 11.1687 97.926 10.905C98.9282 10.6639 99.9579 10.5562 100.988 10.5844V10.5746ZM117.621 26.3544C116.265 26.3659 114.933 25.9987 113.775 25.2942C112.627 24.5769 111.684 23.5746 111.038 22.3848C110.371 21.1605 110.031 19.7846 110.052 18.3905C110.028 17.0117 110.368 15.651 111.038 14.4455C111.684 13.2543 112.638 12.258 113.8 11.5608C114.944 10.8427 116.27 10.4663 117.621 10.4759C118.965 10.465 120.283 10.8416 121.418 11.5608C122.567 12.2661 123.511 13.2609 124.155 14.4455C124.831 15.6494 125.18 17.0097 125.166 18.3905C125.177 19.7865 124.828 21.1619 124.155 22.3848C123.506 23.5725 122.564 24.5741 121.418 25.2942C120.281 26.0093 118.965 26.3887 117.621 26.3889V26.3544ZM117.597 22.3108C118.08 22.3332 118.563 22.245 119.007 22.0527C119.451 21.8604 119.846 21.5692 120.161 21.2013C120.768 20.4042 121.097 19.4297 121.097 18.4275C121.097 17.4253 120.768 16.4508 120.161 15.6537C119.832 15.3015 119.434 15.0211 118.992 14.8301C118.55 14.6391 118.073 14.5418 117.591 14.5441C117.109 14.5464 116.633 14.6484 116.193 14.8436C115.753 15.0388 115.358 15.323 115.032 15.6783C114.397 16.4459 114.064 17.4192 114.095 18.4152C114.064 19.4261 114.396 20.4148 115.032 21.2013C115.346 21.5732 115.739 21.8694 116.183 22.0675C116.627 22.2657 117.11 22.3606 117.597 22.3453V22.3108ZM135.221 26.3544C133.865 26.3646 132.533 25.9975 131.374 25.2942C130.228 24.5741 129.286 23.5725 128.637 22.3848C127.97 21.1605 127.631 19.7846 127.651 18.3905C127.628 17.0117 127.968 15.651 128.637 14.4455C129.285 13.2553 130.238 12.2594 131.399 11.5608C132.544 10.8432 133.87 10.4669 135.221 10.4759C136.564 10.4644 137.883 10.8411 139.018 11.5608C140.167 12.2661 141.111 13.2609 141.754 14.4455C142.433 15.6486 142.782 17.0095 142.765 18.3905C142.778 19.7868 142.43 21.1628 141.754 22.3848C141.106 23.5725 140.164 24.5741 139.018 25.2942C137.88 26.0098 136.564 26.3893 135.221 26.3889V26.3544ZM135.196 22.3108C135.68 22.3332 136.162 22.245 136.606 22.0527C137.051 21.8604 137.445 21.5692 137.76 21.2013C138.368 20.4042 138.697 19.4297 138.697 18.4275C138.697 17.4253 138.368 16.4508 137.76 15.6537C137.432 15.3015 137.034 15.0211 136.591 14.8301C136.149 14.6391 135.672 14.5418 135.191 14.5441C134.709 14.5464 134.233 14.6484 133.793 14.8436C133.352 15.0388 132.957 15.323 132.632 15.6783C131.996 16.4459 131.663 17.4192 131.695 18.4152C131.663 19.4261 131.996 20.4148 132.632 21.2013C132.945 21.5732 133.338 21.8694 133.783 22.0675C134.227 22.2657 134.71 22.3606 135.196 22.3453V22.3108ZM145.226 6.25977H149.294V25.9845H145.226V6.25977Z" fill="var(--logo-text-color, #fff)"/>
<path d="M61.8589 38.8405L60.9023 36.6264H56.4642L55.5076 38.8405H53.8901L57.8598 29.6143H59.4624L63.4517 38.8405H61.8589ZM57.0757 35.152H60.2563L58.6685 31.4635L57.0757 35.152ZM68.4667 32.139C68.8516 32.1108 69.2377 32.1733 69.594 32.3214C69.9503 32.4696 70.2668 32.6993 70.5181 32.9921C70.9817 33.5641 71.2085 34.4715 71.2085 35.7487V38.8405H69.7784V35.7487C69.8232 35.1801 69.6775 34.6128 69.3642 34.1362C69.1981 33.9588 68.9934 33.8221 68.7659 33.7365C68.5385 33.651 68.2943 33.619 68.0525 33.643C67.7804 33.6305 67.5089 33.6799 67.2587 33.7875C67.0084 33.8952 66.7858 34.0582 66.6077 34.2644C66.2254 34.7703 66.038 35.397 66.0801 36.0297V38.8652H64.6007V32.3166H66.0801L65.7546 34.4468H65.9765C66.0286 33.9482 66.1848 33.466 66.4351 33.0316C66.6204 32.7168 66.9048 32.4723 67.2438 32.3363C67.6359 32.1961 68.0505 32.1293 68.4667 32.139ZM73.5508 31.7248C73.4409 31.7282 73.3314 31.7095 73.2289 31.6697C73.1264 31.6298 73.0329 31.5698 72.9541 31.493C72.7994 31.337 72.7125 31.126 72.7125 30.9062C72.7125 30.6864 72.7994 30.4755 72.9541 30.3194C73.0318 30.2404 73.1248 30.1782 73.2274 30.1367C73.33 30.0951 73.4401 30.0751 73.5508 30.0778C73.6571 30.0752 73.7627 30.0955 73.8605 30.1372C73.9584 30.1788 74.0461 30.241 74.1179 30.3194C74.2727 30.4755 74.3595 30.6864 74.3595 30.9062C74.3595 31.126 74.2727 31.337 74.1179 31.493C74.045 31.5694 73.9568 31.6296 73.8591 31.6695C73.7614 31.7094 73.6563 31.7283 73.5508 31.7248ZM72.8259 32.3166H74.256V38.8405H72.8259V32.3166ZM77.4514 32.3166L77.1309 34.4616H77.407C77.4979 33.77 77.8381 33.1352 78.3637 32.6765C78.8143 32.334 79.3657 32.1502 79.9318 32.1538C80.2208 32.1375 80.5101 32.1826 80.7804 32.2863C81.0507 32.39 81.2959 32.5499 81.4999 32.7554C81.7026 32.987 81.8547 33.2584 81.9464 33.5523C82.0382 33.8461 82.0675 34.1558 82.0325 34.4616H82.3086C82.3995 33.77 82.7397 33.1352 83.2653 32.6765C83.7152 32.3326 84.2671 32.1487 84.8334 32.1538C85.1765 32.1326 85.5196 32.1952 85.8331 32.3361C86.1467 32.4769 86.4213 32.6919 86.6333 32.9625C87.0475 33.5 87.2546 34.4419 87.2546 35.7635V38.8553H85.8246V35.7487C85.8246 34.3285 85.3101 33.6184 84.2811 33.6184C84.0124 33.6048 83.7443 33.6539 83.4978 33.7617C83.2513 33.8695 83.0333 34.0332 82.8609 34.2397C82.4951 34.7524 82.3206 35.3771 82.3678 36.0051V38.8405H80.9377V35.7487C80.9377 34.3285 80.4233 33.6184 79.3943 33.6184C79.1256 33.6048 78.8574 33.6539 78.611 33.7617C78.3645 33.8695 78.1465 34.0332 77.9741 34.2397C77.6102 34.7533 77.4359 35.3773 77.481 36.0051V38.8405H76.0016V32.3018L77.4514 32.3166ZM91.4067 32.2574C92.2824 32.1876 93.1509 32.4618 93.8279 33.0217C94.1131 33.3234 94.3316 33.6817 94.4692 34.0733C94.6068 34.465 94.6605 34.8812 94.6267 35.295V38.8553H93.2066L93.4383 36.6412H93.2657C92.9896 38.2241 92.1562 39.018 90.7755 39.018C90.1437 39.0724 89.5135 38.8973 89.0002 38.5249C88.794 38.3251 88.6339 38.0827 88.5311 37.8146C88.4283 37.5465 88.3852 37.2592 88.4049 36.9728C88.4247 36.6863 88.5067 36.4076 88.6453 36.1562C88.7839 35.9047 88.9757 35.6865 89.2074 35.5169C89.8954 35.0818 90.7024 34.8731 91.5152 34.9202H93.1967C93.1729 34.7402 93.1114 34.5673 93.0162 34.4126C92.921 34.258 92.7943 34.1251 92.6444 34.0227C92.2772 33.7995 91.8503 33.6945 91.4215 33.7219C91.0951 33.7092 90.7718 33.7896 90.4895 33.9537C90.2003 34.1282 89.9529 34.3638 89.7646 34.6441L88.5564 33.8748C88.8767 33.3902 89.297 32.9799 89.7892 32.6716C90.28 32.3857 90.8387 32.2374 91.4067 32.2426V32.2574ZM90.9925 37.5288C91.5182 37.5614 92.0394 37.4154 92.4718 37.1146C92.8354 36.8031 93.0693 36.3669 93.1277 35.8917H91.5152C91.0955 35.865 90.6757 35.9412 90.2922 36.1136C90.1847 36.1689 90.0928 36.2503 90.0251 36.3505C89.9573 36.4506 89.9159 36.5662 89.9046 36.6866C89.8933 36.807 89.9125 36.9282 89.9604 37.0392C90.0083 37.1502 90.0834 37.2474 90.1788 37.3217C90.4232 37.4693 90.7078 37.5365 90.9925 37.514V37.5288ZM98.0243 35.4774C98.0049 35.9418 98.0397 36.4068 98.1279 36.8631C98.16 36.9775 98.223 37.0808 98.31 37.1618C98.397 37.2427 98.5046 37.298 98.621 37.3217C99.1197 37.4025 99.6251 37.4339 100.13 37.4154V38.8553C99.31 38.8953 98.489 38.802 97.6989 38.5792C97.4823 38.511 97.2854 38.3916 97.1248 38.2311C96.9643 38.0705 96.8449 37.8736 96.7767 37.657C96.6254 36.9409 96.5625 36.2089 96.5894 35.4774V33.791H95.3122V32.3116H96.5795V30.0778H98.0243V32.3166H100.11V33.7959H98.0243V35.4774ZM102.462 31.7396C102.352 31.7434 102.241 31.7249 102.138 31.685C102.035 31.6452 101.94 31.5849 101.861 31.5078C101.706 31.3518 101.619 31.1408 101.619 30.921C101.619 30.7012 101.706 30.4903 101.861 30.3342C101.939 30.2546 102.033 30.1921 102.136 30.1505C102.24 30.1089 102.351 30.0892 102.462 30.0926C102.568 30.0904 102.673 30.1109 102.77 30.1525C102.867 30.1942 102.954 30.2562 103.025 30.3342C103.102 30.4108 103.164 30.5022 103.206 30.6029C103.249 30.7037 103.27 30.8118 103.27 30.921C103.27 31.0302 103.249 31.1384 103.206 31.2391C103.164 31.3399 103.102 31.4312 103.025 31.5078C102.951 31.5809 102.863 31.638 102.766 31.6753C102.669 31.7126 102.566 31.7295 102.462 31.7248V31.7396ZM101.733 32.3313H103.177V38.8553H101.733V32.3313ZM107.699 39.0279C107.113 39.0333 106.538 38.8744 106.038 38.5693C105.532 38.2564 105.116 37.8181 104.829 37.2971C104.547 36.7606 104.401 36.1627 104.405 35.5563C104.4 34.9562 104.546 34.3643 104.829 33.8354C105.112 33.3257 105.521 32.8976 106.018 32.5927C106.519 32.2894 107.094 32.1291 107.68 32.1291C108.265 32.1291 108.84 32.2894 109.341 32.5927C109.837 32.8942 110.242 33.3234 110.515 33.8354C110.803 34.363 110.95 34.9555 110.944 35.5563C110.949 36.1634 110.802 36.7619 110.515 37.2971C110.243 37.8133 109.838 38.2474 109.341 38.5545C108.847 38.8561 108.279 39.0148 107.699 39.0131V39.0279ZM107.699 37.5979C107.948 37.6083 108.196 37.5633 108.426 37.466C108.655 37.3688 108.86 37.2218 109.026 37.0357C109.363 36.6276 109.538 36.1099 109.519 35.581C109.54 35.0563 109.364 34.5426 109.026 34.1411C108.855 33.9605 108.65 33.8167 108.422 33.7183C108.193 33.62 107.948 33.5693 107.699 33.5693C107.451 33.5693 107.205 33.62 106.977 33.7183C106.749 33.8167 106.543 33.9605 106.373 34.1411C106.032 34.5373 105.855 35.049 105.88 35.5711C105.857 36.1006 106.032 36.6196 106.373 37.0258C106.54 37.21 106.745 37.3553 106.974 37.4516C107.203 37.5479 107.451 37.5927 107.699 37.5831V37.5979ZM115.979 32.1735C116.364 32.1453 116.75 32.2078 117.106 32.3559C117.462 32.5041 117.779 32.7338 118.03 33.0266C118.494 33.5987 118.725 34.5175 118.725 35.7832V38.875H117.295V35.7487C117.341 35.1793 117.194 34.6111 116.876 34.1362C116.71 33.9588 116.505 33.8221 116.278 33.7365C116.051 33.651 115.806 33.619 115.565 33.643C115.292 33.6309 115.021 33.6804 114.771 33.788C114.521 33.8957 114.298 34.0585 114.12 34.2644C113.737 34.7703 113.55 35.397 113.592 36.0297V38.8652H112.113V32.3166H113.592L113.267 34.4468H113.489C113.543 33.9487 113.699 33.467 113.947 33.0316C114.134 32.718 114.418 32.4738 114.756 32.3363C115.148 32.1961 115.563 32.1293 115.979 32.139V32.1735ZM130.817 36.4637C130.495 37.2052 129.957 37.8325 129.273 38.2636C128.554 38.6868 127.73 38.8987 126.896 38.875C126.11 38.8978 125.333 38.6904 124.663 38.2784C124.038 37.878 123.545 37.3038 123.242 36.6264C122.904 35.8682 122.736 35.0452 122.749 34.2151C122.735 33.4008 122.904 32.5936 123.242 31.853C123.543 31.1852 124.038 30.6233 124.663 30.2405C125.335 29.832 126.11 29.6265 126.896 29.6488C127.746 29.623 128.585 29.8476 129.308 30.2948C130.023 30.7751 130.574 31.4636 130.886 32.2672L129.599 33.1105C129.422 32.5027 129.058 31.9661 128.558 31.5769C128.061 31.2666 127.482 31.1136 126.896 31.138C126.422 31.133 125.954 31.2484 125.535 31.4733C125.121 31.7119 124.788 32.0692 124.579 32.499C124.33 33.0359 124.212 33.6238 124.234 34.2151C124.165 35.0839 124.437 35.9454 124.993 36.6166C125.469 37.0433 126.069 37.3076 126.705 37.3714C127.342 37.4352 127.982 37.2952 128.534 36.9716C128.993 36.6351 129.338 36.1649 129.52 35.6254L130.817 36.4637ZM132.04 29.6488H133.48V38.875H132.04V29.6488ZM141.587 32.3511V38.875H140.107L140.433 36.7448H140.211C140.157 37.2461 140.001 37.7311 139.752 38.1699C139.56 38.4826 139.273 38.7261 138.934 38.8652C138.543 38.9979 138.132 39.0597 137.72 39.0476C137.334 39.0775 136.946 39.0158 136.588 38.8675C136.23 38.7193 135.912 38.4887 135.659 38.1945C135.206 37.6274 134.979 36.7152 134.979 35.438V32.3166H136.389V35.4035C136.345 35.9735 136.491 36.5422 136.803 37.0209C136.967 37.2027 137.171 37.3441 137.398 37.4339C137.626 37.5238 137.871 37.5596 138.115 37.5387C138.386 37.5517 138.657 37.5035 138.907 37.3977C139.157 37.2918 139.38 37.131 139.56 36.9272C139.941 36.4171 140.128 35.7877 140.087 35.152V32.3166L141.587 32.3511ZM147.169 32.2771C147.689 32.2749 148.196 32.4371 148.618 32.7406C149.071 33.0642 149.43 33.5013 149.659 34.008C149.917 34.5689 150.047 35.1805 150.039 35.798C150.042 36.358 149.912 36.9107 149.659 37.4105C149.42 37.892 149.062 38.3045 148.618 38.6088C148.191 38.9 147.685 39.0532 147.169 39.0476C145.743 39.0476 144.905 38.2784 144.644 36.73H144.447L144.56 38.875H143.081V29.6143H144.56V32.3166L144.447 34.437H144.688C144.797 33.8166 145.105 33.2486 145.566 32.8195C146.009 32.4329 146.581 32.227 147.169 32.2426V32.2771ZM146.675 37.5831C147.02 37.59 147.36 37.5067 147.662 37.3414C147.944 37.1883 148.179 36.9617 148.342 36.6856C148.551 36.3176 148.636 35.8921 148.584 35.4721C148.533 35.0521 148.348 34.6598 148.056 34.3531C147.874 34.1743 147.657 34.0343 147.419 33.9419C147.18 33.8495 146.926 33.8066 146.671 33.8156C146.325 33.8101 145.985 33.8969 145.684 34.0671C145.396 34.2264 145.157 34.4618 144.994 34.7476C144.825 35.0343 144.736 35.3615 144.738 35.6944C144.741 36.0143 144.829 36.3276 144.994 36.6018C145.167 36.8928 145.407 37.138 145.694 37.3168C145.99 37.4792 146.324 37.5592 146.661 37.5485L146.675 37.5831Z" fill="var(--logo-text-color, #fff)"/>
</g>
<defs>
<clipPath id="clip0_926_1463">
<rect width="161" height="42" fill="white"/>
</clipPath>
</defs>
</svg>
