<svg width="20" height="20" viewBox="0 0 20 20" fill="none" xmlns="http://www.w3.org/2000/svg">
<g clip-path="url(#clip0_926_8293)">
<path d="M16.0245 12.7161L13.9079 12.4745C13.3995 12.4161 12.8995 12.5911 12.5412 12.9495L11.0079 14.4828C8.64955 13.2828 6.71621 11.3578 5.51621 8.99115L7.05788 7.44948C7.41621 7.09115 7.59121 6.59115 7.53288 6.08281L7.29121 3.98281C7.19121 3.14115 6.48288 2.50781 5.63288 2.50781H4.19121C3.24955 2.50781 2.46621 3.29115 2.52455 4.23281C2.96621 11.3495 8.65788 17.0328 15.7662 17.4745C16.7079 17.5328 17.4912 16.7495 17.4912 15.8078V14.3661C17.4995 13.5245 16.8662 12.8161 16.0245 12.7161Z" fill="#222222"/>
</g>
<defs>
<clipPath id="clip0_926_8293">
<rect width="20" height="20" fill="white"/>
</clipPath>
</defs>
</svg>
