<svg width="21" height="22" viewBox="0 0 21 22" fill="none" xmlns="http://www.w3.org/2000/svg">
<path fill-rule="evenodd" clip-rule="evenodd" d="M9.62401 4.87257C5.75641 4.87257 2.62109 8.00789 2.62109 11.8755C2.62109 15.7431 5.75641 18.8784 9.62401 18.8784C13.4916 18.8784 16.6269 15.7431 16.6269 11.8755C16.63 10.0173 15.8931 8.2343 14.5792 6.92034C13.2652 5.60638 11.4822 4.86955 9.62401 4.87257Z" stroke="#222222" stroke-width="1.3125" stroke-linecap="round" stroke-linejoin="round"/>
<path d="M6.51143 18.153V18.0977C6.51143 16.5415 9.62384 16.7252 9.62384 14.9853C9.62384 13.4291 7.28953 13.4291 7.28953 11.0948C7.28953 8.89433 5.73333 8.7605 3.39902 8.7605H3.35156" stroke="#222222" stroke-width="1.3125" stroke-linecap="round" stroke-linejoin="round"/>
<path d="M14.2713 17.1042C14.152 17.0612 14.0364 17.0084 13.9258 16.9463C13.2032 16.5236 12.7609 15.7475 12.7657 14.9103C12.7704 14.0732 13.2214 13.3021 13.9488 12.8877C14.6761 12.4732 15.5694 12.4782 16.292 12.9009C16.3706 12.9515 16.4462 13.0065 16.5184 13.0659" stroke="#222222" stroke-width="1.3125" stroke-linecap="round" stroke-linejoin="round"/>
<path d="M12.4531 5.46758C13.0143 3.86305 14.6476 2.894 16.3248 3.17041C18.002 3.44682 19.2379 4.88871 19.2545 6.58847C19.2712 8.28824 18.0638 9.75405 16.3923 10.0632" stroke="#222222" stroke-width="1.3125" stroke-linecap="round" stroke-linejoin="round"/>
</svg>
