<svg width="30" height="30" viewBox="0 0 30 30" fill="none" xmlns="http://www.w3.org/2000/svg">
<path d="M14.9982 30C6.72655 30 0 23.2726 0 15C0 6.73095 6.72655 0 14.9982 0C16.0115 0 17.0248 0.100623 18.0129 0.301869C18.5555 0.413273 19.0981 0.553426 19.6227 0.725922C19.8886 0.812171 20.0323 1.09607 19.9461 1.362C19.8599 1.62793 19.576 1.77168 19.3101 1.68543C18.8214 1.52731 18.3148 1.39435 17.8117 1.29013C16.8918 1.10326 15.9468 1.00623 14.9982 1.00623C7.28351 1.00623 1.0097 7.28438 1.0097 15C1.0097 22.7156 7.2871 28.9902 14.9982 28.9902C22.7129 28.9902 28.9903 22.712 28.9903 15C28.9903 12.7036 28.4226 10.4253 27.3482 8.41279C27.2152 8.16842 27.3087 7.86296 27.5566 7.72999C27.8009 7.59703 28.1064 7.69046 28.2393 7.93843C29.3927 10.0946 30 12.5383 30 15C29.9964 23.2726 23.2699 30 14.9982 30Z" fill="#222222"/>
<path d="M22.8612 8.20748C22.693 8.02084 22.42 7.95172 22.1733 8.03467L6.5789 13.2431C6.26859 13.3468 6.048 13.6026 6.00687 13.9067C5.96575 14.2109 6.11156 14.5012 6.38075 14.6706L8.50063 16.0081C8.78104 16.1844 9.14744 16.2051 9.44654 16.0565L11.7272 14.9436C11.9627 14.8295 12.1683 15.1337 11.9552 15.2788L10.4822 16.295C10.2504 16.4539 10.112 16.7063 10.112 16.9758V19.2846C10.112 19.5334 10.2578 19.7615 10.4971 19.879C10.7364 19.9965 11.0206 19.9862 11.2486 19.8479L12.8226 18.8836C12.8974 18.8387 12.9909 18.8387 13.0619 18.8836L14.606 19.8583C14.7518 19.9516 14.9276 20 15.0995 20C15.1594 20 15.2192 19.9931 15.2753 19.9827C15.5108 19.9378 15.7164 19.803 15.8435 19.6164L22.8986 8.8607C23.0481 8.6637 23.0294 8.39757 22.8612 8.20748Z" fill="#222222"/>
<path d="M25.5184 5C25.3987 5 25.2757 4.94907 25.1834 4.84328C24.8415 4.45932 24.4792 4.09494 24.1066 3.75408C23.8194 3.49157 23.5186 3.24474 23.2143 3.00966C22.9921 2.84118 22.934 2.50032 23.081 2.24565C23.228 1.99098 23.5254 1.92437 23.7476 2.09284C24.0758 2.3436 24.3971 2.61002 24.7048 2.8882C25.1048 3.25257 25.4945 3.64437 25.8568 4.05576C26.0448 4.26733 26.0483 4.61604 25.8637 4.83153C25.7645 4.94123 25.6415 5 25.5184 5Z" fill="#222222"/>
</svg>
