<svg width="898" height="18" viewBox="0 0 898 18" fill="none" xmlns="http://www.w3.org/2000/svg">
<path d="M2.00106 14.1501C3.43529 11.2501 24.4482 10.2906 29.2104 10.0377C44.6058 9.21983 62.455 9.25538 77.9265 9.92661C112.332 11.4193 144.943 16.1717 179.993 15.4688C200.609 15.0554 221.303 14.4949 241.304 12.1007C263.369 9.45931 284.386 5.64941 307.129 4.14173C324.636 2.9812 341.864 2.78124 359.172 4.61753C380.238 6.85236 401.379 8.13622 422.86 9.30907C450.146 10.7989 477.695 11.3155 505.084 9.96904C518.17 9.32564 531.504 8.19005 544.056 6.38936C554.257 4.92593 564.359 3.12216 575.008 2.41006C592.042 1.27109 609.72 2.8521 626.161 4.75413C653.877 7.96068 682.087 10.247 710.761 10.2445C730.02 10.2428 748.051 9.02872 766.665 6.87682C782.212 5.07951 794.333 4.59633 809.44 7.13993C826.821 10.0663 835.877 11.6403 854.033 10.265C862.697 9.60873 875.682 13.3408 883.831 11.7987C886.156 11.3588 893.453 14.1502 896 14.15" stroke="#E7AE44" stroke-width="3" stroke-linecap="round"/>
</svg>
