<svg width="37" height="37" viewBox="0 0 37 37" fill="none" xmlns="http://www.w3.org/2000/svg">
<path fill-rule="evenodd" clip-rule="evenodd" d="M0 18.5C0 8.28273 8.28273 0 18.5 0C28.7173 0 37 8.28273 37 18.5C37 28.7173 28.7173 37 18.5 37C8.28273 37 0 28.7173 0 18.5Z" fill="#4C6C91"/>
<path fill-rule="evenodd" clip-rule="evenodd" d="M19.4677 24.5714C19.4677 24.5714 19.8239 24.5325 20.0063 24.3402C20.1733 24.164 20.1675 23.8315 20.1675 23.8315C20.1675 23.8315 20.1453 22.2787 20.8797 22.0494C21.6036 21.8239 22.5331 23.551 23.5195 24.2152C24.2646 24.7173 24.8301 24.6074 24.8301 24.6074L27.466 24.5714C27.466 24.5714 28.8442 24.488 28.1908 23.4241C28.1368 23.3369 27.8096 22.6368 26.2315 21.1986C24.5782 19.6932 24.8002 19.9367 26.7904 17.3323C28.0026 15.7464 28.4871 14.7781 28.3356 14.3641C28.1918 13.9681 27.3 14.0733 27.3 14.0733L24.3331 14.0913C24.3331 14.0913 24.113 14.0619 23.9499 14.1576C23.7907 14.2514 23.6874 14.4702 23.6874 14.4702C23.6874 14.4702 23.2183 15.6971 22.5919 16.7411C21.2706 18.9429 20.7427 19.0594 20.5265 18.923C20.0237 18.6037 20.1491 17.6421 20.1491 16.959C20.1491 14.8246 20.4792 13.935 19.5073 13.7047C19.1849 13.628 18.9475 13.5778 18.1223 13.5693C17.0635 13.5588 16.1678 13.5731 15.6602 13.8165C15.3224 13.9785 15.0618 14.3404 15.221 14.3613C15.417 14.3869 15.8609 14.4788 16.0964 14.7933C16.4004 15.1997 16.3898 16.1111 16.3898 16.1111C16.3898 16.1111 16.5645 18.6236 15.9816 18.9353C15.582 19.1494 15.0338 18.7127 13.8553 16.7146C13.2521 15.6914 12.7965 14.5602 12.7965 14.5602C12.7965 14.5602 12.7087 14.349 12.5514 14.2353C12.3613 14.0979 12.0958 14.0553 12.0958 14.0553L9.27662 14.0733C9.27662 14.0733 8.85291 14.0846 8.69752 14.2656C8.5595 14.4257 8.6869 14.7582 8.6869 14.7582C8.6869 14.7582 10.8942 19.8278 13.394 22.3829C15.6862 24.7249 18.2883 24.5714 18.2883 24.5714H19.4677Z" fill="white"/>
</svg>
