<svg id="yt" viewBox="0 0 37 37" fill="none" xmlns="http://www.w3.org/2000/svg">
<path fill-rule="evenodd" clip-rule="evenodd" d="M0 18.5C0 8.28273 8.28273 0 18.5 0C28.7173 0 37 8.28273 37 18.5C37 28.7173 28.7173 37 18.5 37C8.28273 37 0 28.7173 0 18.5Z" fill="#FF0000"/>
<path fill-rule="evenodd" clip-rule="evenodd" d="M27.9543 13.9316C27.7273 13.0598 27.0586 12.3732 26.2095 12.1402C24.6708 11.7168 18.5 11.7168 18.5 11.7168C18.5 11.7168 12.3292 11.7168 10.7903 12.1402C9.94119 12.3732 9.2725 13.0598 9.04557 13.9316C8.6333 15.5116 8.6333 18.8085 8.6333 18.8085C8.6333 18.8085 8.6333 22.1052 9.04557 23.6854C9.2725 24.5572 9.94119 25.2437 10.7903 25.4768C12.3292 25.9001 18.5 25.9001 18.5 25.9001C18.5 25.9001 24.6708 25.9001 26.2095 25.4768C27.0586 25.2437 27.7273 24.5572 27.9543 23.6854C28.3666 22.1052 28.3666 18.8085 28.3666 18.8085C28.3666 18.8085 28.3666 15.5116 27.9543 13.9316Z" fill="white"/>
<path fill-rule="evenodd" clip-rule="evenodd" d="M16.6499 22.1999V16.0332L21.5832 19.1167L16.6499 22.1999Z" fill="#FF0000"/>
</svg>
