<svg width="649" height="595" viewBox="0 0 649 595" fill="none" xmlns="http://www.w3.org/2000/svg">
<path opacity="0.5" d="M277.674 551.506L277.673 551.505C194.289 475.962 125.113 413.232 76.7768 354.15C28.4461 295.074 1.00317 239.706 1.00317 178.893C1.00317 79.2119 79.1338 1.47388 178.584 1.47388C234.771 1.47388 288.706 27.6089 323.907 68.5854L324.286 69.0269L324.666 68.5854C359.866 27.6089 413.801 1.47388 469.989 1.47388C569.439 1.47388 647.569 79.2119 647.569 178.893C647.569 239.706 620.127 295.074 571.796 354.15C523.46 413.232 454.283 475.962 370.899 551.505L370.898 551.506L324.286 593.9L277.674 551.506Z" stroke="#E7AE44"/>
</svg>
