<svg width="329" height="124" viewBox="0 0 329 124" fill="none" xmlns="http://www.w3.org/2000/svg">
<g clip-path="url(#clip0_570_17735)">
<mask id="mask0_570_17735" style="mask-type:luminance" maskUnits="userSpaceOnUse" x="2" y="38" width="85" height="83">
<path d="M38.7502 38.9795C49.8666 37.4273 61.1216 40.1928 70.0394 46.6675C78.9572 53.1422 84.8071 62.7957 86.3024 73.5045C87.7977 84.2133 84.8158 95.1001 78.0127 103.77C71.2095 112.44 61.1425 118.182 50.0261 119.735C38.9097 121.287 27.6547 118.521 18.7369 112.047C9.81914 105.572 3.96915 95.9183 2.47388 85.2095C0.978602 74.5008 3.96052 63.614 10.7637 54.9442C17.5668 46.2744 27.6339 40.5317 38.7502 38.9795Z" fill="white"/>
</mask>
<g mask="url(#mask0_570_17735)">
<path d="M38.7502 38.9795C49.8666 37.4273 61.1216 40.1928 70.0394 46.6675C78.9572 53.1422 84.8071 62.7957 86.3024 73.5045C87.7977 84.2133 84.8158 95.1001 78.0127 103.77C71.2095 112.44 61.1425 118.182 50.0261 119.735C38.9097 121.287 27.6547 118.521 18.7369 112.047C9.81914 105.572 3.96915 95.9183 2.47388 85.2095C0.978602 74.5008 3.96052 63.614 10.7637 54.9442C17.5668 46.2744 27.6339 40.5317 38.7502 38.9795Z" fill="#E7AE44"/>
<path d="M69.6849 23.7862L-7.82953 115.357L85.1092 138.137L69.6849 23.7862Z" fill="#200863"/>
<path d="M66.9124 122.569C66.931 122.702 66.9219 122.838 66.8857 122.968C66.8494 123.098 66.7867 123.22 66.7013 123.327C66.6158 123.434 66.5093 123.524 66.388 123.591C66.2666 123.658 66.1329 123.702 65.9945 123.718C48.0797 125.814 30.1025 120.999 15.9721 110.323C15.8609 110.243 15.7673 110.143 15.6969 110.028C15.6265 109.913 15.5807 109.785 15.5621 109.652C15.5435 109.519 15.5526 109.383 15.5887 109.253C15.6249 109.123 15.6874 109.001 15.7727 108.894L56.8172 60.0284C56.95 59.8745 57.1258 59.7607 57.3233 59.7007C57.5208 59.6408 57.7315 59.6373 57.9299 59.6906C58.1283 59.744 58.3058 59.852 58.4409 60.0015C58.5761 60.1509 58.6631 60.3355 58.6913 60.5328L66.9124 122.569Z" fill="#F9F9F9"/>
<path opacity="0.3" d="M40.3945 125.232L57.4738 66.5074C57.5402 66.2755 57.6876 66.0728 57.8904 65.9344C58.0932 65.796 58.3388 65.7306 58.5846 65.7495C58.8304 65.7684 59.0611 65.8704 59.2369 66.0379C59.4126 66.2054 59.5223 66.4278 59.547 66.6668L65.5633 124.372C65.5701 124.509 65.549 124.647 65.5011 124.776C65.4532 124.906 65.3796 125.025 65.2843 125.127C65.1891 125.229 65.0742 125.312 64.9463 125.371C64.8184 125.43 64.6799 125.464 64.539 125.47L41.4281 126.52C41.2651 126.523 41.1039 126.489 40.9571 126.421C40.8104 126.353 40.682 126.252 40.5819 126.128C40.4819 126.003 40.4129 125.857 40.3804 125.702C40.3479 125.547 40.3527 125.386 40.3945 125.232Z" fill="#114CC2"/>
<path opacity="0.3" d="M28.0795 117.667L57.3926 62.7841L21.1655 113.027C21.0057 113.241 20.9367 113.503 20.9726 113.759C21.0085 114.016 21.1464 114.249 21.3587 114.411L26.4571 118.073C26.5851 118.161 26.7329 118.222 26.8898 118.249C27.0466 118.277 27.2086 118.271 27.364 118.232C27.5194 118.194 27.6642 118.123 27.7879 118.025C27.9117 117.927 28.0113 117.805 28.0795 117.667Z" fill="#E7AE44"/>
<path d="M31.9004 88.0908L68.6119 96.9452" stroke="#200863" stroke-width="4"/>
</g>
<path d="M120.551 64.7208C121.697 66.3463 123.3 67.6228 125.176 68.4038C126.908 68.9774 128.767 69.1265 130.584 68.8377C132.297 68.6737 133.963 68.1824 135.483 67.3926C135.963 67.151 136.357 66.7746 136.612 66.314C136.866 65.8534 136.969 65.3305 136.906 64.8155C136.819 64.1676 136.546 63.5578 136.117 63.0547C135.688 62.5516 135.12 62.1751 134.478 61.9675C132.144 61.2625 129.706 60.9128 127.252 60.931L124.363 60.8112C121.288 60.7831 118.333 59.7135 116.018 57.7904C113.786 55.8913 112.362 53.2645 112.016 50.4054C111.724 48.6744 112.071 46.8932 112.996 45.3689C114.02 43.7627 115.483 42.4555 117.223 41.5917C119.332 40.5318 121.617 39.8421 123.97 39.5555C127.979 38.9957 131.271 39.2813 133.845 40.4123C136.732 41.7778 139.1 43.9723 140.625 46.696L134.148 50.3118C133.15 49.0313 131.794 48.0503 130.237 47.4806C128.42 46.912 126.48 46.7905 124.592 47.1272C123.384 47.2346 122.216 47.6094 121.179 48.2221C120.794 48.5126 120.504 48.9045 120.346 49.3493C120.188 49.7941 120.169 50.2722 120.29 50.7246C120.327 51.1961 120.5 51.647 120.789 52.0268C121.078 52.4065 121.472 52.7 121.928 52.8744C123.525 53.324 125.174 53.5887 126.841 53.6629L129.147 53.8641C134.359 54.3035 138.216 55.4457 140.718 57.2907C141.932 58.1647 142.945 59.2709 143.693 60.5409C144.441 61.811 144.908 63.2179 145.067 64.6749C145.32 66.1426 145.162 67.6529 144.608 69.0509C144.055 70.4489 143.127 71.6843 141.919 72.6302C139.429 74.6587 135.853 75.9984 131.19 76.6495C127.798 77.2637 124.305 76.9079 121.143 75.6264C117.935 73.9856 115.17 71.6539 113.06 68.8111L120.551 64.7208ZM180.045 62.4547C179.129 65.1445 177.387 67.5114 175.05 69.2409C172.358 71.0009 169.258 72.088 166.033 72.4027C163.418 72.7874 160.751 72.4683 158.328 71.4807C155.925 70.4981 153.842 68.9179 152.291 66.9009C150.681 64.8249 149.658 62.3797 149.319 59.8001C148.936 57.2413 149.253 54.6233 150.239 52.2035C151.178 49.8387 152.748 47.7485 154.79 46.1451C156.85 44.5317 159.328 43.4942 161.948 43.1478C169.39 42.1087 174.948 44.2026 178.622 49.4294L172.868 54.3238C171.871 53.387 170.775 52.5517 169.598 51.8311C168.777 51.3348 167.854 51.01 166.89 50.8773C165.889 50.7784 164.878 50.8077 163.882 50.9644C162.918 51.0631 161.981 51.3435 161.126 51.7894C160.27 52.2353 159.513 52.8381 158.896 53.5633C158.331 54.2823 157.926 55.105 157.707 55.9791C157.488 56.8531 157.46 57.7594 157.625 58.6404C157.693 59.5653 157.963 60.4639 158.418 61.2774C158.873 62.0909 159.502 62.801 160.265 63.3615C161.904 64.357 163.884 64.71 165.8 64.3486C167.287 64.1723 168.711 63.6468 169.944 62.8186C171.234 61.8524 172.297 60.6334 173.06 59.2441L180.045 62.4547ZM201.869 36.9553C204.395 36.4958 206.999 36.761 209.353 37.7178C211.616 38.7885 213.409 40.5911 214.423 42.8133C215.985 46.0757 216.975 49.5697 217.352 53.1546L218.916 64.3527L210.95 65.465L209.386 54.2669C208.891 50.7209 207.95 48.2361 206.563 46.8124C205.205 45.3848 203.044 44.8778 200.062 45.2942C198.846 45.3845 197.667 45.7539 196.625 46.3713C195.582 46.9886 194.706 47.836 194.07 48.8422C192.925 50.8097 192.576 53.3953 193.024 56.5992L194.587 67.7973L186.32 68.9516L182.342 40.4619L181.104 31.5968L189.362 30.4438L190.6 39.3089L190.53 49.4507L191.502 49.315C191.438 46.0258 191.802 43.549 192.593 41.8846C193.222 40.3773 194.409 39.1431 195.923 38.4229C197.834 37.6911 199.834 37.2039 201.871 36.974L201.869 36.9553ZM238.805 62.2414C236.138 62.6361 233.416 62.3077 230.948 61.2932C228.497 60.2516 226.374 58.6142 224.788 56.5403C223.15 54.407 222.117 51.8968 221.789 49.2529C221.378 46.6502 221.689 43.9817 222.69 41.5163C223.647 39.0842 225.263 36.9367 227.368 35.2976C229.433 33.6238 231.945 32.5468 234.61 32.1934C237.254 31.803 239.951 32.1531 242.377 33.2019C244.827 34.2204 246.949 35.8433 248.531 37.9081C250.181 40.0002 251.227 42.4785 251.564 45.0954C251.954 47.7342 251.632 50.4327 250.628 52.9321C249.664 55.3582 248.073 57.5129 246.006 59.1906C243.954 60.8567 241.461 61.9369 238.815 62.3068L238.805 62.2414ZM237.688 54.5962C238.647 54.5056 239.574 54.2059 240.399 53.7198C241.224 53.2337 241.924 52.5741 242.447 51.7912C243.433 50.1157 243.824 48.1811 243.559 46.2846C243.294 44.388 242.388 42.6344 240.981 41.2931C240.241 40.7169 239.383 40.2958 238.461 40.056C237.539 39.8163 236.574 39.7632 235.626 39.9001C234.677 40.037 233.766 40.3609 232.951 40.8514C232.135 41.342 231.431 41.9885 230.884 42.7504C229.835 44.3778 229.436 46.3112 229.762 48.1873C229.967 50.1091 230.883 51.8886 232.344 53.202C233.059 53.8196 233.913 54.2718 234.84 54.5246C235.767 54.7774 236.744 54.8242 237.698 54.6616L237.688 54.5962ZM273.477 57.4002C270.809 57.7924 268.088 57.4641 265.619 56.452C263.172 55.4046 261.051 53.7683 259.459 51.6991C257.821 49.5658 256.788 47.0556 256.461 44.4117C256.05 41.809 256.36 39.1405 257.361 36.6751C258.322 34.2445 259.937 32.0977 262.039 30.4564C264.105 28.7835 266.617 27.7067 269.281 27.3522C271.925 26.9607 274.622 27.3109 277.048 28.3607C279.498 29.3792 281.621 31.0021 283.202 33.0669C284.856 35.157 285.903 37.6363 286.236 40.2542C286.631 42.8929 286.308 45.5926 285.3 48.0909C284.336 50.517 282.744 52.6717 280.677 54.3495C278.626 56.0164 276.133 57.0967 273.486 57.4656L273.477 57.4002ZM272.36 49.755C273.319 49.6645 274.246 49.3647 275.07 48.8786C275.895 48.3925 276.595 47.7329 277.118 46.95C278.104 45.2745 278.495 43.3399 278.23 41.4434C277.965 39.5468 277.06 37.7932 275.652 36.4519C274.912 35.8757 274.054 35.4546 273.132 35.2148C272.211 34.9751 271.245 34.922 270.297 35.0589C269.349 35.1958 268.438 35.5197 267.622 36.0102C266.806 36.5008 266.103 37.1473 265.556 37.9093C264.507 39.5366 264.108 41.47 264.433 43.3461C264.638 45.2679 265.554 47.0474 267.015 48.3608C267.731 48.9784 268.584 49.4306 269.511 49.6834C270.438 49.9362 271.416 49.983 272.369 49.8204L272.36 49.755ZM287.878 16.6213L295.893 15.5022L301.105 52.829L293.09 53.9481L287.878 16.6213Z" fill="#E7AE44"/>
<path d="M132.069 101.642L129.582 97.6177L120.821 98.841L119.532 103.393L116.339 103.839L121.68 84.8756L124.844 84.4338L135.214 101.203L132.069 101.642ZM121.63 95.8168L127.908 94.9401L123.776 88.2341L121.63 95.8168ZM143.301 86.8417C144.053 86.681 144.832 86.6955 145.576 86.8843C146.319 87.0731 147.006 87.4307 147.581 87.9285C148.651 88.9086 149.344 90.6034 149.69 93.0769L150.526 99.0651L147.703 99.4592L146.867 93.4711C146.801 92.3576 146.36 91.299 145.613 90.4623C145.237 90.1646 144.796 89.9562 144.324 89.8532C143.852 89.7503 143.361 89.7556 142.89 89.8688C142.35 89.9195 141.827 90.09 141.362 90.3675C140.897 90.6449 140.502 91.022 140.206 91.4704C139.588 92.5556 139.388 93.821 139.642 95.0349L140.409 100.526L137.488 100.934L135.717 88.2512L138.638 87.8434L138.571 92.0589L139.009 91.9977C138.977 91.0176 139.155 90.0407 139.532 89.1304C139.813 88.4696 140.308 87.9176 140.94 87.5608C141.677 87.1813 142.477 86.9376 143.301 86.8417ZM153.225 84.6381C153.009 84.6751 152.788 84.669 152.575 84.6201C152.362 84.5712 152.161 84.4806 151.985 84.3537C151.637 84.0941 151.408 83.7096 151.349 83.2838C151.29 82.8581 151.404 82.4257 151.667 82.0807C151.799 81.9064 151.966 81.7603 152.157 81.6515C152.349 81.5427 152.561 81.4735 152.78 81.4483C152.989 81.4141 153.203 81.4242 153.407 81.4779C153.612 81.5317 153.802 81.6279 153.965 81.76C154.312 82.0196 154.541 82.4041 154.6 82.8299C154.66 83.2556 154.545 83.688 154.282 84.033C154.159 84.201 154.001 84.3418 153.819 84.4461C153.637 84.5504 153.434 84.6158 153.225 84.6381ZM151.954 85.984L154.777 85.5898L156.542 98.2251L153.719 98.6192L151.954 85.984ZM161.085 84.7091L161.032 88.9519L161.578 88.8757C161.57 87.5111 162.07 86.1881 162.983 85.1548C163.78 84.3671 164.819 83.8592 165.937 83.7102C166.504 83.5989 167.087 83.6066 167.648 83.733C168.21 83.8593 168.737 84.1014 169.196 84.4431C169.658 84.8358 170.032 85.3196 170.293 85.8633C170.553 86.4071 170.695 86.9989 170.708 87.6008L171.253 87.5247C171.246 86.1601 171.746 84.837 172.659 83.8037C173.454 83.0137 174.494 82.5053 175.613 82.3592C176.285 82.2236 176.979 82.2501 177.636 82.4365C178.293 82.623 178.893 82.9637 179.385 83.4293C180.348 84.3562 181.012 86.1232 181.369 88.6827L182.205 94.6708L179.382 95.065L178.542 89.0482C178.158 86.2977 176.95 85.0643 174.919 85.3479C174.385 85.3957 173.869 85.5646 173.412 85.8414C172.954 86.1181 172.568 86.4952 172.284 86.9427C171.7 88.0364 171.525 89.2944 171.788 90.4977L172.554 95.9892L169.732 96.3833L168.895 90.3952C168.511 87.6447 167.304 86.4112 165.272 86.6949C164.738 86.7426 164.222 86.9116 163.765 87.1883C163.308 87.4651 162.921 87.8421 162.637 88.2897C162.058 89.3846 161.882 90.6412 162.141 91.8446L162.908 97.3361L159.987 97.7439L158.219 85.08L161.085 84.7091ZM188.617 80.7479C190.327 80.3714 192.116 80.663 193.603 81.5608C194.248 82.0665 194.776 82.7002 195.154 83.4208C195.531 84.1414 195.75 84.9328 195.795 85.7434L196.758 92.6388L193.954 93.0303L193.813 88.6783L193.473 88.7258C193.356 91.8676 191.925 93.635 189.199 94.0155C187.967 94.2949 186.676 94.1295 185.562 93.5498C185.101 93.2197 184.719 92.7944 184.444 92.3035C184.168 91.8126 184.005 91.268 183.967 90.7078C183.928 90.1476 184.015 89.5852 184.22 89.06C184.426 88.5348 184.746 88.0594 185.157 87.667C186.398 86.6346 187.934 86.008 189.551 85.8752L192.871 85.4117C192.775 85.0697 192.607 84.7517 192.377 84.4784C192.148 84.2051 191.862 83.9828 191.538 83.8258C190.753 83.4946 189.882 83.4089 189.042 83.5803C188.395 83.6456 187.778 83.8904 187.265 84.2861C186.742 84.7036 186.317 85.2282 186.021 85.8229L183.428 84.6661C183.929 83.6393 184.648 82.7288 185.536 81.996C186.428 81.3069 187.491 80.8658 188.613 80.7193L188.617 80.7479ZM189.225 91.0715C190.272 90.9896 191.261 90.5633 192.033 89.8615C192.667 89.158 193.011 88.2486 192.997 87.3122L189.814 87.7567C188.979 87.8208 188.171 88.084 187.46 88.5235C187.263 88.6602 187.103 88.8433 186.997 89.056C186.89 89.2686 186.84 89.5039 186.85 89.7401C186.86 89.9764 186.931 90.206 187.055 90.4078C187.18 90.6095 187.355 90.777 187.563 90.8946C188.085 91.1131 188.665 91.1649 189.221 91.0428L189.225 91.0715ZM202.551 85.1603C202.639 86.0649 202.833 86.956 203.131 87.8154C203.225 88.0281 203.377 88.2109 203.571 88.3436C203.764 88.4763 203.992 88.5539 204.228 88.5677C205.234 88.5868 206.241 88.5082 207.232 88.3332L207.621 91.122C206.014 91.4254 204.368 91.471 202.748 91.2572C202.302 91.185 201.881 91.008 201.52 90.7413C201.16 90.4746 200.871 90.1261 200.678 89.7255C200.186 88.3802 199.863 86.9799 199.719 85.5558L199.263 82.2896L196.742 82.6416L196.341 79.7765L198.843 79.4271L198.239 75.1008L201.091 74.7025L201.697 79.0384L205.814 78.4635L206.214 81.3286L202.097 81.9036L202.551 85.1603ZM210.302 76.6978C210.084 76.7357 209.861 76.7301 209.646 76.6815C209.432 76.6329 209.229 76.5421 209.051 76.4147C208.704 76.1551 208.475 75.7705 208.416 75.3448C208.356 74.9191 208.471 74.4867 208.734 74.1417C208.867 73.966 209.035 73.819 209.228 73.7099C209.421 73.6008 209.635 73.5321 209.856 73.5079C210.064 73.4746 210.276 73.4854 210.479 73.5394C210.681 73.5933 210.87 73.6894 211.031 73.8209C211.206 73.9479 211.352 74.1078 211.463 74.2913C211.573 74.4747 211.645 74.6782 211.675 74.8897C211.705 75.1012 211.691 75.3166 211.635 75.5234C211.579 75.7301 211.481 75.9241 211.349 76.0939C211.223 76.2558 211.065 76.3905 210.884 76.4895C210.703 76.5885 210.503 76.6496 210.298 76.6691L210.302 76.6978ZM209.021 78.045L211.873 77.6467L213.637 90.282L210.785 90.6802L209.021 78.045ZM222.61 89.3698C221.455 89.5417 220.276 89.3927 219.206 88.9397C218.123 88.4729 217.183 87.7389 216.477 86.8087C215.774 85.8477 215.325 84.7297 215.169 83.5543C214.996 82.3934 215.124 81.2069 215.541 80.1043C215.961 79.0393 216.653 78.0975 217.551 77.37C218.458 76.6445 219.549 76.1755 220.706 76.0141C221.862 75.8526 223.04 76.0047 224.112 76.4539C225.171 76.9012 226.088 77.6208 226.764 78.5371C227.475 79.4798 227.926 80.5865 228.077 81.752C228.251 82.9262 228.121 84.1261 227.701 85.2415C227.303 86.3164 226.62 87.2689 225.724 88.0004C224.829 88.7207 223.75 89.1848 222.606 89.3412L222.61 89.3698ZM222.224 86.6002C222.718 86.5518 223.196 86.3962 223.622 86.1446C224.049 85.8931 224.413 85.552 224.69 85.1458C225.245 84.2625 225.452 83.2116 225.27 82.1925C225.171 81.1703 224.684 80.2239 223.907 79.5397C223.522 79.237 223.077 79.015 222.6 78.8875C222.123 78.7599 221.624 78.7295 221.134 78.7979C220.644 78.8664 220.172 79.0323 219.749 79.2856C219.325 79.5389 218.958 79.8742 218.67 80.271C218.104 81.1323 217.894 82.1719 218.084 83.1765C218.181 84.2084 218.669 85.165 219.45 85.858C219.83 86.1686 220.274 86.3935 220.753 86.5168C221.231 86.64 221.732 86.6587 222.22 86.5715L222.224 86.6002ZM237.101 73.8126C237.853 73.6518 238.632 73.6664 239.375 73.8552C240.119 74.0439 240.806 74.4016 241.381 74.8994C242.451 75.8795 243.157 77.5952 243.499 80.0465L244.335 86.0346L241.512 86.4287L240.667 80.3738C240.603 79.2584 240.158 78.1986 239.403 77.3663C239.027 77.0686 238.586 76.8602 238.114 76.7573C237.642 76.6543 237.151 76.6597 236.68 76.7728C236.14 76.8242 235.618 76.995 235.153 77.2724C234.688 77.5498 234.293 77.9265 233.996 78.3744C233.378 79.4596 233.178 80.725 233.432 81.9389L234.199 87.4304L231.279 87.8382L229.508 75.1552L232.428 74.7474L232.362 78.9629L232.8 78.9018C232.772 77.922 232.95 76.9461 233.322 76.0344C233.606 75.3755 234.1 74.8245 234.731 74.4648C235.467 74.0854 236.267 73.8416 237.091 73.7458L237.101 73.8126ZM267.551 78.0316C267.117 79.5565 266.225 80.9196 264.991 81.943C263.686 82.9608 262.117 83.5983 260.465 83.7824C258.918 84.0433 257.329 83.8557 255.894 83.2425C254.553 82.6393 253.423 81.6632 252.643 80.4345C251.771 79.0594 251.216 77.5118 251.018 75.9003C250.77 74.3271 250.884 72.7175 251.353 71.1897C251.766 69.8133 252.591 68.5887 253.72 67.6753C254.936 66.6989 256.412 66.087 257.97 65.9135C259.64 65.6293 261.356 65.8332 262.904 66.4999C264.447 67.2329 265.721 68.4146 266.553 69.8852L264.24 71.873C263.726 70.7447 262.862 69.8058 261.772 69.1897C260.706 68.7257 259.522 68.5891 258.372 68.7977C257.434 68.919 256.541 69.2715 255.776 69.8223C255.023 70.3986 254.462 71.1824 254.165 72.0725C253.82 73.1808 253.745 74.3521 253.948 75.4912C254.047 77.1929 254.817 78.7863 256.097 79.9329C257.152 80.628 258.408 80.9747 259.681 80.9229C260.954 80.8711 262.18 80.4235 263.182 79.6446C263.998 78.8662 264.551 77.8608 264.765 76.7655L267.551 78.0316ZM268.123 64.4958L270.965 64.0989L273.46 81.9678L270.618 82.3647L268.123 64.4958ZM287.699 67.098L289.463 79.7333L286.543 80.141L286.609 75.9255L286.171 75.9867C286.2 76.9726 286.023 77.9549 285.651 78.8732C285.356 79.5318 284.856 80.0824 284.224 80.4454C283.489 80.8101 282.695 81.043 281.878 81.1332C281.123 81.2974 280.341 81.2849 279.594 81.0966C278.847 80.9082 278.156 80.5493 277.579 80.0491C276.53 79.0758 275.835 77.3715 275.49 74.898L274.646 68.8525L277.43 68.4638L278.264 74.4424C278.332 75.5586 278.773 76.6197 279.52 77.4607C279.892 77.7677 280.332 77.9854 280.806 78.0967C281.279 78.2079 281.773 78.2098 282.249 78.102C282.788 78.0524 283.309 77.8845 283.774 77.6105C284.24 77.3366 284.636 76.9637 284.936 76.5195C285.551 75.4263 285.75 74.1557 285.497 72.9359L284.73 67.4444L287.699 67.098ZM298.698 65.4162C299.724 65.2685 300.77 65.4428 301.685 65.9143C302.666 66.4163 303.492 67.164 304.082 68.082C304.744 69.0971 305.165 70.2458 305.316 71.4441C305.473 72.5279 305.366 73.6342 305.002 74.6718C304.66 75.6703 304.065 76.5678 303.272 77.2793C302.508 77.961 301.551 78.3972 300.529 78.5289C297.716 78.9217 295.853 77.6629 294.918 74.7361L294.529 74.7905L295.333 78.9137L292.413 79.3214L289.908 61.3857L292.829 60.9779L293.559 66.2116L293.909 70.3495L294.386 70.2829C294.432 69.0515 294.887 67.8666 295.681 66.9085C296.451 66.0376 297.525 65.4811 298.689 65.3493L298.698 65.4162ZM299.16 75.8284C299.841 75.7469 300.49 75.4918 301.041 75.0886C301.556 74.7143 301.959 74.2105 302.207 73.6308C302.52 72.8604 302.572 72.0131 302.357 71.2138C302.142 70.4146 301.67 69.7058 301.012 69.1922C300.603 68.8961 300.137 68.6849 299.642 68.5716C299.147 68.4583 298.633 68.4452 298.131 68.5332C297.448 68.6176 296.799 68.8796 296.252 69.2921C295.726 69.6799 295.319 70.2017 295.073 70.8003C294.817 71.4022 294.73 72.0603 294.823 72.7047C294.916 73.3234 295.175 73.9057 295.575 74.3913C295.995 74.9074 296.535 75.3161 297.151 75.5831C297.778 75.8161 298.459 75.8792 299.121 75.7656L299.16 75.8284Z" fill="#E7AE44"/>
</g>
<defs>
<clipPath id="clip0_570_17735">
<rect width="321" height="80" fill="white" transform="translate(0 44.3906) rotate(-7.94885)"/>
</clipPath>
</defs>
</svg>
