<svg width="21" height="22" viewBox="0 0 21 22" fill="none" xmlns="http://www.w3.org/2000/svg">
<path d="M13.1272 11.0001V7.49866C13.1272 7.01521 12.7353 6.62329 12.2518 6.62329H8.75036C8.26691 6.62329 7.875 7.01521 7.875 7.49866V9.24938" stroke="#87909E" stroke-width="1.3125" stroke-linecap="round" stroke-linejoin="round"/>
<path d="M12.253 15.3769V11.8755C12.253 11.392 12.645 11.0001 13.1284 11.0001H14.8791C15.3626 11.0001 15.7545 11.392 15.7545 11.8755V14.5015C15.7545 14.985 15.3626 15.3769 14.8791 15.3769H6.12549C5.64203 15.3769 5.25011 14.985 5.25 14.5015V11.4232C5.25 11.0126 5.48199 10.6372 5.84926 10.4536L8.02596 9.36524C8.36111 9.19767 8.75902 9.21495 9.07838 9.41095C9.39774 9.60696 9.59331 9.95392 9.59565 10.3286L9.62707 15.3769" stroke="#87909E" stroke-width="1.3125" stroke-linecap="round" stroke-linejoin="round"/>
<path d="M10.5002 6.62311V5.31006" stroke="#87909E" stroke-width="1.3125" stroke-linecap="round" stroke-linejoin="round"/>
<rect x="2.62109" y="3.12158" width="15.7566" height="15.7566" rx="4.375" stroke="#87909E" stroke-width="1.3125"/>
</svg>
