<svg width="235" height="37" viewBox="0 0 235 37" fill="none" xmlns="http://www.w3.org/2000/svg">
<g clip-path="url(#clip0_926_8303)">
<path d="M112.911 13.4237C112.165 12.9563 111.296 12.7257 110.416 12.762C107.615 12.762 105.886 14.3013 105.229 17.3799H104.696C104.844 14.3045 103.523 12.7652 100.734 12.762C97.9457 12.7589 96.2165 14.2982 95.5468 17.3799H95.0044L95.6081 13.0645H92.189V25.3774H95.6081V20.542C95.5415 19.4068 95.8443 18.2806 96.4711 17.3327C96.7866 16.9435 97.1907 16.6361 97.6495 16.4362C98.1083 16.2363 98.6083 16.1499 99.1074 16.1841C100.154 16.1841 100.892 16.5339 101.319 17.2334C101.747 17.9329 101.968 19.0358 101.984 20.542V25.3774H105.285V20.542C105.219 19.4068 105.522 18.2806 106.148 17.3327C106.464 16.9438 106.868 16.6366 107.327 16.4367C107.786 16.2369 108.286 16.1502 108.785 16.1841C109.832 16.1841 110.569 16.5339 110.997 17.2334C111.424 17.9329 111.646 19.0358 111.661 20.542V25.3774H114.963V20.542C115.018 18.9373 114.835 17.3332 114.42 15.7823C114.2 14.8469 113.668 14.0148 112.911 13.4237Z" fill="#62154B"/>
<path d="M126.456 13.6457C125.273 13.2034 124.015 12.9978 122.754 13.0407C121.719 13.0287 120.699 13.2791 119.787 13.7686C118.782 14.3328 117.919 15.1202 117.264 16.0705L119.938 17.8241C120.293 17.397 120.731 17.0464 121.226 16.7936C121.706 16.5806 122.228 16.4773 122.754 16.4911C123.484 16.4472 124.215 16.5785 124.885 16.874C125.123 17.0058 125.331 17.1849 125.498 17.4003C125.664 17.6156 125.784 17.8628 125.852 18.1266H122.079C121.107 18.0944 120.141 18.2801 119.25 18.6701C118.556 18.9682 117.963 19.4606 117.542 20.0881C117.168 20.6576 116.971 21.3254 116.976 22.0071C116.976 23.2675 117.352 24.194 118.104 24.7864C118.855 25.3788 119.955 25.675 121.405 25.675C122.005 25.7132 122.608 25.629 123.175 25.4275C123.742 25.226 124.263 24.9115 124.706 24.5028C125.498 23.7276 125.989 22.5081 126.177 20.8585H126.456L125.984 25.3914H129.262V19.1475C129.321 17.9274 129.09 16.7106 128.587 15.5978C128.138 14.7087 127.38 14.0146 126.456 13.6457ZM125.286 21.3879C124.967 21.7193 124.554 21.9438 124.102 22.0307C123.44 22.17 122.765 22.2318 122.089 22.2151C121.649 22.2494 121.21 22.1345 120.844 21.8889C120.723 21.7933 120.625 21.6711 120.559 21.5318C120.493 21.3925 120.46 21.2397 120.462 21.0854C120.462 20.4001 121.004 20.055 122.089 20.055H125.861C125.802 20.5458 125.603 21.0088 125.286 21.3879Z" fill="#62154B"/>
<path d="M89.3311 13.0835H86.011V25.3774H89.3311V13.0835Z" fill="#62154B"/>
<path d="M57.0876 9.25L50.1692 25.3772H53.909L58.974 13.5654L61.2896 18.949L57.6252 18.9679L56.7716 22.3947H62.7752L64.0626 25.3772H67.8072L60.8463 9.25H57.0876Z" fill="#62154B"/>
<path d="M80.9272 13.5229C80.025 12.9806 78.9836 12.716 77.9325 12.762C77.0929 12.7392 76.254 12.8282 75.4377 13.0267C74.7818 13.242 74.23 13.6956 73.8909 14.2981C73.3855 15.2515 73.0896 16.3023 73.0231 17.3799H72.627L73.2306 13.0881H69.7974V25.3773H73.2165V20.542C73.1499 19.4068 73.4527 18.2805 74.0795 17.3326C74.3952 16.9438 74.7994 16.6365 75.2582 16.4367C75.7169 16.2368 76.2167 16.1502 76.7158 16.184C77.9514 16.184 78.8003 16.5291 79.2719 17.2144C79.7435 17.8998 79.9934 19.0058 79.9934 20.5231V25.3773H83.2947V20.542C83.3442 19.0003 83.1402 17.4609 82.691 15.9855C82.4057 14.9846 81.7822 14.1141 80.9272 13.5229Z" fill="#62154B"/>
<path d="M87.7182 9.24981C87.4846 9.24575 87.2525 9.28839 87.0355 9.37522C86.8185 9.46206 86.6209 9.59135 86.4543 9.75556C86.1306 10.0823 85.949 10.524 85.949 10.9845C85.949 11.4449 86.1306 11.8867 86.4543 12.2134C86.6209 12.3776 86.8185 12.5069 87.0355 12.5937C87.2525 12.6806 87.4846 12.7232 87.7182 12.7192C87.9407 12.7235 88.1616 12.6807 88.3664 12.5935C88.5712 12.5064 88.7553 12.3768 88.9067 12.2134C89.2304 11.8867 89.412 11.4449 89.412 10.9845C89.412 10.524 89.2304 10.0823 88.9067 9.75556C88.7553 9.59214 88.5712 9.46261 88.3664 9.37545C88.1616 9.2883 87.9407 9.24548 87.7182 9.24981Z" fill="#62154B"/>
<path d="M136.048 9.25H132.747V13.0833H130.516V16.5101H132.747V18.9868C132.688 20.3879 132.81 21.7908 133.11 23.1604C133.254 23.5762 133.498 23.95 133.82 24.2485C134.143 24.547 134.534 24.761 134.959 24.8715C135.949 25.2087 137.652 25.3772 140.066 25.3772V22.0686C139.086 22.0964 138.106 22.0506 137.133 21.9315C136.936 21.912 136.748 21.8374 136.592 21.7163C136.435 21.5951 136.315 21.4322 136.246 21.2462C136.089 20.5104 136.029 19.7572 136.067 19.0057V16.5101H140.066V13.0833H136.067L136.048 9.25Z" fill="#62154B"/>
<path d="M173.63 13.5228C172.728 12.981 171.687 12.7164 170.635 12.7618C169.796 12.7391 168.957 12.8281 168.141 13.0265C167.483 13.2417 166.93 13.6951 166.589 14.298C166.085 15.2518 165.791 16.3026 165.726 17.3798H165.325L165.929 13.088H162.51V25.3772H165.929V20.5419C165.862 19.4066 166.165 18.2804 166.792 17.3325C167.107 16.9434 167.512 16.6359 167.97 16.436C168.429 16.2361 168.929 16.1497 169.428 16.1839C170.659 16.1839 171.513 16.529 171.98 17.2143C172.446 17.8997 172.706 19.0057 172.706 20.523V25.3772H176.007V20.5419C176.059 19 175.855 17.4602 175.403 15.9854C175.118 14.982 174.49 14.1106 173.63 13.5228Z" fill="#62154B"/>
<path d="M215.617 17.9188C215.684 19.056 215.372 20.1833 214.731 21.1235C214.421 21.5129 214.021 21.8209 213.566 22.021C213.111 22.2211 212.614 22.3072 212.118 22.272C210.882 22.272 210.024 21.9302 209.543 21.2464C209.071 20.561 208.84 19.4503 208.84 17.9377V13.0835H205.539V17.9188C205.492 19.4591 205.689 20.9971 206.124 22.4753C206.421 23.4754 207.044 24.3472 207.892 24.952C208.807 25.4836 209.854 25.7426 210.911 25.6989C211.742 25.7239 212.573 25.6365 213.382 25.4389C214.039 25.2342 214.594 24.7864 214.933 24.1863C215.448 23.229 215.749 22.171 215.815 21.0857H216.221L215.617 25.3774H219.036V13.0882H215.617V17.9188Z" fill="#62154B"/>
<path d="M234.316 16.3068C233.927 15.3543 233.286 14.5259 232.463 13.9105C231.718 13.3416 230.806 13.0359 229.869 13.0408C228.772 13.0189 227.708 13.416 226.893 14.1515C226.013 15.0108 225.441 16.1374 225.266 17.3562H224.884L225.082 13.1022V9.25H221.654V25.3772H225.073L224.875 21.024H225.176C225.547 24.1278 227.108 25.6797 229.859 25.6797C230.784 25.685 231.685 25.3953 232.434 24.8526C233.241 24.2945 233.891 23.5376 234.321 22.6547C234.772 21.7543 235.006 20.7602 235.005 19.7526C235.02 18.5682 234.785 17.3939 234.316 16.3068ZM231.298 20.9248C231.033 21.3474 230.658 21.6892 230.213 21.9126C229.721 22.1611 229.175 22.2845 228.624 22.2718C228.046 22.2787 227.477 22.1337 226.973 21.8512C226.499 21.5748 226.1 21.1872 225.808 20.7215C225.54 20.314 225.393 19.8387 225.384 19.3508C225.384 18.8673 225.532 18.3955 225.808 17.999C226.099 17.5776 226.494 17.2389 226.954 17.0158C227.476 16.7698 228.047 16.6469 228.624 16.6566C229.03 16.638 229.435 16.7021 229.815 16.8451C230.195 16.9881 230.542 17.207 230.836 17.4885C231.114 17.7562 231.334 18.0798 231.479 18.4381C231.625 18.7965 231.693 19.1816 231.68 19.5682C231.68 20.0471 231.548 20.5168 231.298 20.9248Z" fill="#62154B"/>
<path d="M146.074 13.0835H142.754V25.3774H146.074V13.0835Z" fill="#62154B"/>
<path d="M202.931 9.25H199.611V25.3772H202.931V9.25Z" fill="#62154B"/>
<path d="M144.443 9.24979C144.208 9.24563 143.976 9.2882 143.758 9.37502C143.54 9.46185 143.342 9.59119 143.174 9.75554C142.85 10.0823 142.669 10.524 142.669 10.9845C142.669 11.4449 142.85 11.8867 143.174 12.2134C143.342 12.3777 143.54 12.5071 143.758 12.5939C143.976 12.6807 144.208 12.7233 144.443 12.7191C144.664 12.7228 144.884 12.6797 145.088 12.5925C145.292 12.5054 145.476 12.3762 145.626 12.2134C145.95 11.8867 146.132 11.4449 146.132 10.9845C146.132 10.524 145.95 10.0823 145.626 9.75554C145.476 9.59272 145.292 9.46354 145.088 9.3764C144.884 9.28927 144.664 9.24613 144.443 9.24979Z" fill="#62154B"/>
<path d="M190.273 12.7004C190.912 12.6825 191.549 12.7703 192.16 12.9604C192.71 13.1653 193.186 13.5308 193.527 14.0097C194.025 14.6877 194.395 15.452 194.617 16.2643L197.602 14.4114C196.838 12.5964 195.846 11.2871 194.626 10.4836C193.338 9.63778 191.822 9.20729 190.283 9.24996C188.917 9.21347 187.57 9.57114 186.401 10.2804C185.308 10.9579 184.44 11.9447 183.907 13.1163C183.323 14.4136 183.035 15.8247 183.062 17.2474C183.039 18.6896 183.327 20.1198 183.907 21.4399C184.44 22.6291 185.307 23.6373 186.401 24.3421C187.567 25.0607 188.915 25.4252 190.283 25.3914C191.775 25.4237 193.247 25.0321 194.527 24.2617C195.798 23.4495 196.793 22.2693 197.38 20.8775L194.305 18.9868C194.062 19.8915 193.551 20.7008 192.839 21.3076C192.135 21.7531 191.312 21.9709 190.481 21.9315C189.435 21.9684 188.412 21.6166 187.609 20.9436C186.854 20.2724 186.481 19.053 186.481 17.2332C186.481 15.5695 186.845 14.3973 187.566 13.7261C188.299 13.0403 189.271 12.6717 190.273 12.7004Z" fill="#62154B"/>
<path d="M157.445 13.6081C156.52 13.0172 155.443 12.7085 154.346 12.7195C153.244 12.711 152.162 13.0194 151.229 13.6081C150.281 14.1807 149.503 14.9966 148.975 15.9714C148.426 16.9495 148.142 18.0541 148.149 19.1761C148.14 20.3163 148.424 21.4398 148.975 22.4375C149.506 23.4036 150.276 24.2172 151.21 24.8008C152.155 25.3763 153.241 25.6759 154.346 25.6657C155.44 25.6751 156.514 25.3753 157.445 24.8008C158.378 24.2171 159.146 23.4034 159.675 22.4375C160.228 21.4403 160.512 20.3165 160.501 19.1761C160.511 18.0538 160.226 16.9487 159.675 15.9714C159.152 15.0009 158.383 14.1857 157.445 13.6081ZM156.417 21.4685C156.16 21.7693 155.839 22.0075 155.477 22.1648C155.115 22.3221 154.722 22.3943 154.327 22.376C153.933 22.3919 153.54 22.3186 153.177 22.1615C152.815 22.0044 152.492 21.7675 152.233 21.4685C151.716 20.8248 151.445 20.0167 151.469 19.1903C151.444 18.3752 151.716 17.5788 152.233 16.9499C152.488 16.6431 152.809 16.3985 153.171 16.2347C153.534 16.0709 153.93 15.9922 154.327 16.0045C154.722 15.9862 155.115 16.0585 155.477 16.2157C155.839 16.373 156.16 16.6112 156.417 16.912C156.937 17.547 157.208 18.3502 157.181 19.1714C157.215 20.0049 156.943 20.8221 156.417 21.4685Z" fill="#62154B"/>
<path d="M36.9171 18.4998C36.9214 22.2381 35.7914 25.8894 33.6772 28.9693C33.3079 29.5061 32.9112 30.0236 32.4888 30.5196V6.47998C35.3514 9.82698 36.9225 14.0914 36.9171 18.4998Z" fill="#E7AE44"/>
<path d="M32.4887 6.48018V30.5198C32.1067 30.9641 31.7012 31.3942 31.2767 31.8054C29.8325 33.206 28.1693 34.3604 26.3532 35.2228V31.0728C26.3537 30.6852 26.2451 30.3052 26.0399 29.9766C25.8347 29.6481 25.5412 29.3842 25.193 29.2152C25.1276 29.182 25.0598 29.1536 24.9902 29.1302L19.4017 26.7668L13.7425 24.3563L13.6246 24.3043C13.3987 24.2184 13.1588 24.1752 12.9172 24.1767C12.4145 24.1759 11.9292 24.361 11.5543 24.6966C11.5085 24.7339 11.4659 24.775 11.4269 24.8195L4.9188 31.0728C3.49312 29.5298 2.33864 27.7558 1.50439 25.8262L6.30532 21.18L9.07363 18.5L25.193 2.90212L26.3532 1.77246C28.2484 2.67873 29.9781 3.89785 31.4701 5.37887C31.8238 5.73337 32.1633 6.09732 32.4887 6.48018ZM26.3579 25.8593V13.4992C26.3533 13.2368 26.2724 12.9814 26.125 12.7644C25.9776 12.5475 25.7702 12.3784 25.5282 12.278C25.2863 12.1776 25.0203 12.1502 24.763 12.1992C24.5058 12.2482 24.2684 12.3715 24.0801 12.5539L24.0518 12.5822L15.2092 21.1091L20.7788 23.4724L25.193 25.363L26.3579 25.8593Z" fill="#591449"/>
<path d="M26.3534 1.77268L25.1932 2.90234L9.07383 18.5002L6.30551 21.1802L1.50459 25.8265C0.0222617 22.3738 -0.376151 18.5507 0.362344 14.8656C1.10084 11.1805 2.94124 7.80807 5.63876 5.19685C8.33629 2.58563 11.7631 0.859387 15.4634 0.247721C19.1637 -0.363945 22.9621 0.167956 26.3534 1.77268Z" fill="#E7AE44"/>
<path d="M26.3533 31.0729V35.2229C25.976 35.4072 25.5893 35.5726 25.1931 35.7286V29.2153C25.5412 29.3843 25.8348 29.6482 26.04 29.9767C26.2452 30.3053 26.3538 30.6853 26.3533 31.0729Z" fill="#EFF0F1"/>
<path d="M26.3532 13.5463V25.8355L25.1931 25.3629V15.5977C25.198 15.56 25.198 15.5219 25.1931 15.4842C25.1647 15.3858 25.1075 15.2983 25.0288 15.233C24.9501 15.1676 24.8537 15.1275 24.7519 15.1178C24.6502 15.1081 24.548 15.1293 24.4584 15.1786C24.3689 15.228 24.2962 15.3032 24.2499 15.3944L20.7789 23.4817L15.2092 21.1184L24.0518 12.5632C24.2454 12.3818 24.4874 12.2607 24.7484 12.2146C25.0094 12.1686 25.2781 12.1995 25.5219 12.3036C25.7657 12.4078 25.9741 12.5806 26.1217 12.8013C26.2692 13.0219 26.3497 13.2807 26.3532 13.5463Z" fill="#EFF0F1"/>
<path d="M25.1929 29.215V35.7283C23.0469 36.5696 20.7628 37.0008 18.4585 36.9998C17.3515 37.0026 16.2465 36.9045 15.1572 36.7067L19.3969 26.7524L24.9854 29.1158L25.1882 29.2008L25.1929 29.215Z" fill="#EED8D1"/>
<path d="M25.193 15.5977V25.3582L20.7788 23.4676L24.2074 15.3756C24.2503 15.2764 24.3232 15.1933 24.4159 15.138C24.5086 15.0827 24.6163 15.058 24.7237 15.0674C24.8311 15.0768 24.9329 15.1198 25.0146 15.1904C25.0963 15.261 25.1538 15.3555 25.1789 15.4607C25.1907 15.5053 25.1955 15.5516 25.193 15.5977Z" fill="#EED8D1"/>
<path d="M19.3972 26.7527L15.181 36.7069C11.2396 35.9986 7.6365 34.0204 4.91895 31.0728L11.3988 24.8006L11.5261 24.6777C11.9011 24.3421 12.3864 24.157 12.889 24.1578C13.1307 24.1563 13.3705 24.1995 13.5964 24.2854L13.7143 24.3374L19.3972 26.7527Z" fill="#EFF0F1"/>
</g>
<defs>
<clipPath id="clip0_926_8303">
<rect width="235" height="37" fill="white"/>
</clipPath>
</defs>
</svg>
