<svg id="fail" viewBox="0 0 96 96" fill="none" xmlns="http://www.w3.org/2000/svg">
<g clip-path="url(#clip0_1015_6290)">
<circle opacity="0.12" cx="48" cy="48" r="48" fill="#DB524E"/>
<path fill-rule="evenodd" clip-rule="evenodd" d="M31.0056 60.1386C29.6648 61.4794 29.6648 63.6533 31.0056 64.9941C32.3464 66.3349 34.5203 66.3349 35.8611 64.9941L47.9998 52.8554L60.1389 64.9945C61.4797 66.3353 63.6536 66.3353 64.9944 64.9945C66.3352 63.6537 66.3352 61.4799 64.9944 60.139L52.8553 47.9999L64.9941 35.8611C66.3349 34.5203 66.3349 32.3464 64.9941 31.0056C63.6533 29.6648 61.4794 29.6648 60.1386 31.0056L47.9998 43.1444L35.8614 31.0061C34.5206 29.6653 32.3467 29.6653 31.0059 31.0061C29.6651 32.3469 29.6651 34.5208 31.0059 35.8616L43.1443 47.9999L31.0056 60.1386Z" fill="#C7302B"/>
</g>
<defs>
<clipPath id="clip0_1015_6290">
<rect width="96" height="96" fill="white"/>
</clipPath>
</defs>
</svg>
