<svg id="ok" viewBox="0 0 96 96" fill="none" xmlns="http://www.w3.org/2000/svg">
<g clip-path="url(#clip0_932_3297)">
<circle opacity="0.12" cx="48" cy="48" r="48" fill="#27AE60"/>
<path d="M36.4847 49.0671C35.8679 48.5569 35.0642 48.2801 34.2347 48.2922C33.4053 48.3043 32.6116 48.6044 32.0126 49.1323C31.4137 49.6601 31.054 50.3768 31.0056 51.1384C30.9572 51.9 31.2237 52.6503 31.7517 53.2388L39.0484 60.2823C39.3539 60.5771 39.721 60.812 40.1276 60.9731C40.5343 61.1341 40.9721 61.2179 41.4149 61.2195C41.8553 61.2218 42.2917 61.1428 42.6982 60.987C43.1047 60.8312 43.4731 60.6018 43.7814 60.3126L66.0659 39.1517C66.3681 38.8659 66.606 38.5281 66.7662 38.1577C66.9265 37.7873 67.0058 37.3915 66.9997 36.9929C66.9936 36.5943 66.9022 36.2007 66.7307 35.8346C66.5592 35.4685 66.311 35.137 66.0002 34.8591C65.6894 34.5812 65.3222 34.3623 64.9194 34.215C64.5167 34.0676 64.0863 33.9947 63.6529 34.0003C63.2195 34.0059 62.7916 34.09 62.3935 34.2477C61.9955 34.4054 61.6351 34.6337 61.3329 34.9196L41.4477 53.8434L36.4847 49.0671Z" fill="#27AE60"/>
</g>
<defs>
<clipPath id="clip0_932_3297">
<rect width="96" height="96" fill="white"/>
</clipPath>
</defs>
</svg>
