<svg width="30" height="30" viewBox="0 0 30 30" fill="none" xmlns="http://www.w3.org/2000/svg">
<path d="M14.9982 30C6.72655 30 0 23.2726 0 15C0 6.73095 6.72655 0 14.9982 0C16.0115 0 17.0248 0.100623 18.0129 0.301869C18.5555 0.413273 19.0981 0.553426 19.6227 0.725922C19.8886 0.812171 20.0323 1.09607 19.9461 1.362C19.8599 1.62793 19.576 1.77168 19.3101 1.68543C18.8214 1.52731 18.3148 1.39435 17.8117 1.29013C16.8918 1.10326 15.9468 1.00623 14.9982 1.00623C7.28351 1.00623 1.0097 7.28438 1.0097 15C1.0097 22.7156 7.2871 28.9902 14.9982 28.9902C22.7129 28.9902 28.9903 22.712 28.9903 15C28.9903 12.7036 28.4226 10.4253 27.3482 8.41279C27.2152 8.16842 27.3087 7.86296 27.5566 7.72999C27.8009 7.59703 28.1064 7.69046 28.2393 7.93843C29.3927 10.0946 30 12.5383 30 15C29.9964 23.2726 23.2699 30 14.9982 30Z" fill="#222222"/>
<path fill-rule="evenodd" clip-rule="evenodd" d="M17.6722 13.8258L13.3535 16.2096V12.5382V11.4207L15.301 12.5042L17.6722 13.8258ZM22.8463 10.5878C22.8463 10.5878 22.6885 9.40651 22.2109 8.8881C21.6047 8.20821 20.9195 8.20822 20.6039 8.16572C18.3615 8 15.0062 8 15.0062 8H14.9979C14.9979 8 11.6426 8 9.4002 8.16572C9.0846 8.20822 8.40772 8.20821 7.79314 8.89235C7.31559 9.41076 7.1661 10.5836 7.1661 10.5836C7.1661 10.5836 7 11.9603 7 13.3456V13.5156V14.6416C7 16.0269 7.1661 17.4037 7.1661 17.4037C7.1661 17.4037 7.31559 18.5807 7.79314 19.0949C8.40772 19.779 9.20918 19.7578 9.56215 19.83C10.8411 19.9575 15.002 20 15.002 20C15.002 20 18.3573 19.9915 20.5997 19.8258C20.9153 19.7833 21.5963 19.7833 22.2068 19.0992C22.6843 18.5807 22.8421 17.4079 22.8421 17.4079C22.8421 17.4079 22.9999 16.0312 22.9999 14.6459V13.5878V13.3499C23.0041 11.9646 22.8463 10.5878 22.8463 10.5878Z" fill="black"/>
<path d="M25.5184 5C25.3987 5 25.2757 4.94907 25.1834 4.84328C24.8415 4.45932 24.4792 4.09494 24.1066 3.75408C23.8194 3.49157 23.5186 3.24474 23.2143 3.00966C22.9921 2.84118 22.934 2.50032 23.081 2.24565C23.228 1.99098 23.5254 1.92437 23.7476 2.09284C24.0758 2.3436 24.3971 2.61002 24.7048 2.8882C25.1048 3.25257 25.4945 3.64437 25.8568 4.05576C26.0448 4.26733 26.0483 4.61604 25.8637 4.83153C25.7645 4.94123 25.6415 5 25.5184 5Z" fill="#222222"/>
</svg>
