<svg width="81" height="81" viewBox="0 0 81 81" fill="none" xmlns="http://www.w3.org/2000/svg">
<path d="M77.625 33.75C77.625 31.9598 76.9138 30.2429 75.648 28.977C74.3821 27.7112 72.6652 27 70.875 27H49.545L52.785 11.5763C52.8525 11.2388 52.8862 10.8675 52.8862 10.4962C52.8862 9.1125 52.3125 7.83 51.4012 6.91875L47.8237 3.375L25.6163 25.5825C24.3675 26.8312 23.625 28.5187 23.625 30.375V64.125C23.625 65.9152 24.3362 67.6321 25.602 68.898C26.8679 70.1638 28.5848 70.875 30.375 70.875H60.75C63.5513 70.875 65.9475 69.1875 66.96 66.7575L77.1525 42.9637C77.4563 42.1875 77.625 41.3775 77.625 40.5V33.75ZM3.375 70.875H16.875V30.375H3.375V70.875Z" fill="#E7AE44"/>
</svg>
