<svg width="87" height="81" viewBox="0 0 87 81" fill="none" xmlns="http://www.w3.org/2000/svg">
<g clip-path="url(#clip0_570_17778)">
<path d="M32.7509 67.4994C32.7509 66.7833 33.034 66.0965 33.538 65.5902C34.042 65.0838 34.7256 64.7994 35.4384 64.7994H51.5634C52.2761 64.7994 52.9597 65.0838 53.4637 65.5902C53.9677 66.0965 54.2509 66.7833 54.2509 67.4994C54.2509 68.2155 53.9677 68.9022 53.4637 69.4086C52.9597 69.9149 52.2761 70.1994 51.5634 70.1994H35.4384C34.7256 70.1994 34.042 69.9149 33.538 69.4086C33.034 68.9022 32.7509 68.2155 32.7509 67.4994ZM16.6259 43.5342C16.6259 36.5034 23.264 31.1304 30.2246 31.7838C39.0563 32.6119 47.9455 32.6119 56.7771 31.7838C63.7377 31.1304 70.3759 36.5034 70.3759 43.5342V49.782C70.3978 50.9768 69.9963 52.1405 69.2431 53.0654C68.4899 53.9902 67.434 54.616 66.264 54.831C61.7221 55.6248 53.6865 56.6994 43.5009 56.6994C33.3152 56.6994 25.2796 55.6194 20.7377 54.831C19.5677 54.616 18.5118 53.9902 17.7586 53.0654C17.0054 52.1405 16.6039 50.9768 16.6259 49.782V43.5342ZM41.0391 39.0684C40.8296 39.0326 40.6147 39.0472 40.412 39.1111C40.2092 39.1749 40.0244 39.2861 39.8727 39.4356L34.9277 44.2956C31.5643 44.0942 28.2097 43.7646 24.8711 43.3074C24.5251 43.2729 24.1793 43.3744 23.9063 43.5906C23.6333 43.8069 23.4543 44.121 23.407 44.4671C23.3597 44.8131 23.4477 45.1641 23.6526 45.4463C23.8574 45.7285 24.1632 45.9199 24.5056 45.9804C27.4619 46.3908 31.1276 46.785 35.3631 47.0226C35.5497 47.0332 35.7364 47.0045 35.9113 46.9385C36.0862 46.8725 36.2455 46.7706 36.379 46.6392L40.4317 42.6648L44.9844 51.8988C45.0803 52.0925 45.2211 52.2602 45.395 52.3878C45.5689 52.5154 45.7708 52.5992 45.9837 52.632C46.1965 52.6648 46.4141 52.6458 46.6181 52.5764C46.8221 52.5071 47.0066 52.3895 47.1559 52.2336L52.1654 46.9956C55.6206 46.7895 59.0667 46.4508 62.4961 45.9804C62.8385 45.9199 63.1443 45.7285 63.3492 45.4463C63.554 45.1641 63.642 44.8131 63.5947 44.4671C63.5474 44.121 63.3684 43.8069 63.0954 43.5906C62.8224 43.3744 62.4766 43.2729 62.1306 43.3074C59.2389 43.707 55.643 44.0904 51.4881 44.328C51.1498 44.3469 50.8311 44.4935 50.5959 44.7384L46.5431 48.9774L42.0174 39.7974C41.923 39.6071 41.7852 39.4419 41.6152 39.3152C41.4452 39.1885 41.2478 39.1039 41.0391 39.0684Z" fill="#E7AE44"/>
<path d="M46.1875 10.0765C47.2122 9.48216 48.0131 8.56471 48.4659 7.46648C48.9187 6.36824 48.9981 5.15059 48.6919 4.00237C48.3856 2.85415 47.7108 1.83954 46.7721 1.11589C45.8334 0.392241 44.6832 0 43.5 0C42.3168 0 41.1666 0.392241 40.2279 1.11589C39.2892 1.83954 38.6144 2.85415 38.3082 4.00237C38.0019 5.15059 38.0813 6.36824 38.5341 7.46648C38.9869 8.56471 39.7878 9.48216 40.8125 10.0765V16.2001H30.0625C23.6476 16.2001 17.4954 18.7603 12.9594 23.3174C8.42332 27.8745 5.875 34.0553 5.875 40.5001V43.2001C4.44946 43.2001 3.08231 43.769 2.0743 44.7817C1.06629 45.7944 0.5 47.1679 0.5 48.6001L0.5 59.4C0.5 60.8322 1.06629 62.2057 2.0743 63.2184C3.08231 64.2311 4.44946 64.8 5.875 64.8V70.2C5.875 73.0643 7.00759 75.8114 9.0236 77.8368C11.0396 79.8621 13.7739 81 16.625 81H70.375C73.2261 81 75.9604 79.8621 77.9764 77.8368C79.9924 75.8114 81.125 73.0643 81.125 70.2V64.8C82.5505 64.8 83.9177 64.2311 84.9257 63.2184C85.9337 62.2057 86.5 60.8322 86.5 59.4V48.6001C86.5 47.1679 85.9337 45.7944 84.9257 44.7817C83.9177 43.769 82.5505 43.2001 81.125 43.2001V40.5001C81.125 34.0553 78.5767 27.8745 74.0406 23.3174C69.5046 18.7603 63.3524 16.2001 56.9375 16.2001H46.1875V10.0765ZM75.75 40.5001V70.2C75.75 71.6322 75.1837 73.0057 74.1757 74.0184C73.1677 75.0311 71.8005 75.6 70.375 75.6H16.625C15.1995 75.6 13.8323 75.0311 12.8243 74.0184C11.8163 73.0057 11.25 71.6322 11.25 70.2V40.5001C11.25 35.4875 13.232 30.6802 16.7601 27.1358C20.2881 23.5913 25.0731 21.6001 30.0625 21.6001H56.9375C61.9269 21.6001 66.7119 23.5913 70.2399 27.1358C73.768 30.6802 75.75 35.4875 75.75 40.5001Z" fill="#E7AE44"/>
</g>
<defs>
<clipPath id="clip0_570_17778">
<rect width="86" height="81" fill="white" transform="translate(0.5)"/>
</clipPath>
</defs>
</svg>
